<?xml version="1.0" encoding="UTF-8" standalone="no"?>
<!-- Created with Inkscape (http://www.inkscape.org/) -->

<svg
   xmlns:dc="http://purl.org/dc/elements/1.1/"
   xmlns:cc="http://creativecommons.org/ns#"
   xmlns:rdf="http://www.w3.org/1999/02/22-rdf-syntax-ns#"
   xmlns:svg="http://www.w3.org/2000/svg"
   xmlns="http://www.w3.org/2000/svg"
   xmlns:sodipodi="http://sodipodi.sourceforge.net/DTD/sodipodi-0.dtd"
   xmlns:inkscape="http://www.inkscape.org/namespaces/inkscape"
   width="744.09448819"
   height="1052.3622047"
   id="svg3067"
   version="1.1"
   inkscape:version="0.48.4 r9939"
   sodipodi:docname="CorpAlliance.svg">
  <defs
     id="defs3069" />
  <sodipodi:namedview
     id="base"
     pagecolor="#ffffff"
     bordercolor="#666666"
     borderopacity="1.0"
     inkscape:pageopacity="0.0"
     inkscape:pageshadow="2"
     inkscape:zoom="15.839192"
     inkscape:cx="226.55518"
     inkscape:cy="596.84236"
     inkscape:document-units="px"
     inkscape:current-layer="layer1"
     showgrid="false"
     inkscape:window-width="1920"
     inkscape:window-height="1017"
     inkscape:window-x="-8"
     inkscape:window-y="-8"
     inkscape:window-maximized="1" />
  <metadata
     id="metadata3072">
    <rdf:RDF>
      <cc:Work
         rdf:about="">
        <dc:format>image/svg+xml</dc:format>
        <dc:type
           rdf:resource="http://purl.org/dc/dcmitype/StillImage" />
        <dc:title></dc:title>
      </cc:Work>
    </rdf:RDF>
  </metadata>
  <g
     inkscape:label="Layer 1"
     inkscape:groupmode="layer"
     id="layer1">
    <rect
       style="fill:#000000;fill-opacity:1;fill-rule:evenodd;stroke:none"
       id="rect3852"
       width="55.600151"
       height="54.8204"
       x="212.19992"
       y="430.66626" />
    <g
       transform="translate(1168.2714,-657.94693)"
       id="g3858"
       inkscape:export-filename="C:\Projects\CSharp\Hyperwave\Hyperwave\Images\Icons\16\Corp.png"
       inkscape:export-xdpi="90"
       inkscape:export-ydpi="90">
      <rect
         y="1116.2544"
         x="-945.31879"
         height="16"
         width="16"
         id="rect3854"
         style="fill:#008000;fill-opacity:0;fill-rule:evenodd;stroke:none" />
      <path
         inkscape:connector-curvature="0"
         id="path4224"
         d="m -936.45007,1116.2545 -7.67255,2.8505 6.07959,2.851 7.52804,-2.851 -5.93508,-2.8505 z m -0.12212,0.4005 5.10099,2.45 -6.46997,2.4499 -5.22525,-2.4499 6.59423,-2.45 z m -0.0875,0.2869 -5.82255,2.1631 4.61356,2.1636 5.71322,-2.1636 -4.50423,-2.1631 z m -7.41177,2.3636 2.98966,11.4275 3.14913,1.4735 -0.25812,-10.0495 -5.88067,-2.8515 z m 13.48016,0.033 -7.27791,2.8014 0.29438,10.1145 3.94854,-1.5076 3.03499,-11.4083 z m -12.73355,1.9561 0.91514,0.4453 0.44584,2.0953 -0.82715,-0.3898 -0.53383,-2.1508 z m 11.74855,0.086 -0.52903,2.0905 -1.03246,0.384 0.38397,-2.0308 1.17752,-0.4437 z m -9.80574,0.8453 1.03566,0.5098 0.25492,1.9999 -0.94021,-0.4384 -0.35037,-2.0713 z m 7.49336,0.051 -0.28158,1.9882 -1.06659,0.4095 0.21332,-1.954 1.13485,-0.4437 z m -2.30384,0.8704 -0.0939,1.9454 -1.00687,0.384 -0.0341,-1.8857 1.13486,-0.4437 z m -3.12619,0.083 1.02819,0.4939 0.0635,1.9124 -0.92421,-0.4144 -0.16745,-1.9919 z m 6.87207,1.6666 -0.29865,1.2287 -0.90447,0.3328 0.23892,-1.2117 0.9642,-0.3498 z m -9.93,0.063 0.72368,0.3579 0.26292,1.1551 -0.67622,-0.3259 -0.31038,-1.1871 z m 7.96747,0.6709 -0.15359,1.169 -0.93008,0.3669 0.13653,-1.1434 0.94714,-0.3925 z m -6.35958,0.1093 0.85274,0.4064 0.13546,1.1151 -0.78075,-0.3583 -0.20745,-1.1632 z m 4.42264,0.6501 -0.0427,1.1263 -0.92153,0.3414 -0.009,-1.1008 0.97274,-0.3669 z m -2.70169,0.1787 0.86874,0.4064 0.008,1.0436 -0.78875,-0.3744 -0.088,-1.0756 z m 6.0124,0.713 -0.21759,0.9173 -0.81914,0.3242 0.17492,-0.8959 0.86181,-0.3456 z m -8.70555,0.083 0.58182,0.2479 0.22346,0.9402 -0.59783,-0.2719 -0.20745,-0.9162 z m 7.0038,0.5797 -0.14559,0.8794 -0.79302,0.3109 0.0768,-0.8661 0.86181,-0.3242 z m -5.65669,0.043 0.75675,0.3744 0.11946,0.8842 -0.70129,-0.3296 -0.17492,-0.929 z m 3.95387,0.6048 -0.0597,0.8447 -0.80208,0.2987 0.009,-0.8192 0.85328,-0.3242 z m -2.42437,0.12 0.74075,0.3669 0.008,0.8282 -0.69276,-0.3344 -0.056,-0.8607 z m 5.34524,0.5642 -0.21705,0.833 -0.73595,0.2651 0.19305,-0.784 0.75995,-0.3141 z m -7.73602,0.097 0.54237,0.3109 0.19145,0.7727 -0.5509,-0.2869 -0.18292,-0.7967 z m 6.19159,0.5066 -0.16906,1.3754 -0.69968,0.2533 0.13279,-1.3514 0.73595,-0.2773 z m -4.98527,0.1173 0.67569,0.304 0.10186,0.7775 -0.61969,-0.3157 -0.15786,-0.7658 z m 3.5011,0.4619 -0.0363,0.7236 -0.72422,0.3019 -0.0117,-0.7242 0.77221,-0.3013 z m -2.18279,0.1802 0.68742,0.3152 0,0.7098 -0.63142,-0.3264 -0.056,-0.6986 z"
         style="color:#000000;fill:#ffffff;fill-opacity:1;fill-rule:evenodd;stroke:none;stroke-width:1px;marker:none;visibility:visible;display:inline;overflow:visible;enable-background:accumulate" />
    </g>
    <g
       id="g3894"
       transform="translate(3.4092648,-2.0203051)"
       inkscape:export-filename="C:\Projects\CSharp\Hyperwave\Hyperwave\Images\Icons\16\Alliance.png"
       inkscape:export-xdpi="90"
       inkscape:export-ydpi="90">
      <rect
         y="440.62469"
         x="237.07018"
         height="16"
         width="16"
         id="rect3892"
         style="fill:#00ff00;fill-opacity:0;fill-rule:evenodd;stroke:none" />
      <path
         inkscape:connector-curvature="0"
         id="path4430"
         d="m 245.07484,440.7082 c 1.45405,0.3682 2.33432,1.8453 1.96621,3.2993 -0.20307,0.8021 -0.74372,1.4291 -1.43172,1.7687 2.74346,1.6596 3.54594,3.3839 3.97481,5.4784 0.39916,-0.088 0.8245,-0.086 1.24765,0.021 1.45406,0.3681 2.33433,1.8452 1.96621,3.2992 -0.36812,1.4541 -1.84522,2.3344 -3.29927,1.9663 -1.45405,-0.3682 -2.33433,-1.8453 -1.96621,-3.2993 0.011,-0.043 0.0229,-0.086 0.0359,-0.1287 -2.08464,0.1652 -2.53868,0.055 -4.94019,-0.7705 0.088,0.3995 0.0869,0.8248 -0.0204,1.2483 -0.36811,1.4541 -1.84522,2.3344 -3.29927,1.9662 -1.45405,-0.3681 -2.33432,-1.8452 -1.96621,-3.2992 0.36812,-1.4541 1.84522,-2.3344 3.29928,-1.9662 0.0531,0.013 0.10531,0.029 0.15682,0.045 0.60177,-2.3373 1.17101,-3.5714 2.586,-4.4806 -1.23685,-0.5018 -1.9457,-1.8511 -1.60886,-3.1816 0.36811,-1.454 1.84522,-2.3343 3.29927,-1.9662 z m -0.1758,0.6944 c -1.07037,-0.271 -2.15759,0.3774 -2.42857,1.4478 -0.27098,1.0703 0.37686,2.1574 1.44723,2.4284 1.07037,0.271 2.15798,-0.3767 2.42896,-1.4471 0.27098,-1.0703 -0.37725,-2.1581 -1.44762,-2.4291 z m 0.33228,4.6602 -1.16304,0.067 c -1.58332,0.851 -2.0913,1.9881 -2.69845,4.4537 l 0.0248,0.025 0.001,9e-4 c 0.35292,0.2164 0.64673,0.5089 0.86483,0.8489 l 0.33316,0.3272 c 2.60908,0.8989 2.81171,0.9802 5.04396,0.7886 l 0.45086,-0.4173 c 0.14421,-0.1707 0.30825,-0.3217 0.48771,-0.451 l 0.50273,-0.4651 c -0.37649,-2.0071 -1.06852,-3.6172 -3.84793,-5.1773 z m 5.42467,5.9069 c -1.07037,-0.271 -2.1581,0.3773 -2.42908,1.4476 -0.27098,1.0704 0.37738,2.1576 1.44775,2.4286 1.07036,0.271 2.15746,-0.3769 2.42844,-1.4472 0.27098,-1.0704 -0.37674,-2.158 -1.44711,-2.429 z m -10.19031,-0.9834 c -1.07037,-0.271 -2.15746,0.3769 -2.42845,1.4473 -0.27098,1.0703 0.37687,2.1574 1.44724,2.4284 1.07037,0.271 2.15797,-0.3768 2.42896,-1.4471 0.27098,-1.0704 -0.37738,-2.1576 -1.44775,-2.4286 z"
         style="fill:#ffffff;fill-opacity:1;fill-rule:evenodd;stroke:none" />
    </g>
  </g>
</svg>
