<?xml version="1.0" encoding="UTF-8" standalone="no"?>
<!-- Generator: Adobe Illustrator 18.1.1, SVG Export Plug-In . SVG Version: 6.00 Build 0)  -->

<svg
   xmlns:dc="http://purl.org/dc/elements/1.1/"
   xmlns:cc="http://creativecommons.org/ns#"
   xmlns:rdf="http://www.w3.org/1999/02/22-rdf-syntax-ns#"
   xmlns:svg="http://www.w3.org/2000/svg"
   xmlns="http://www.w3.org/2000/svg"
   xmlns:sodipodi="http://sodipodi.sourceforge.net/DTD/sodipodi-0.dtd"
   xmlns:inkscape="http://www.inkscape.org/namespaces/inkscape"
   version="1.1"
   id="Capa_1"
   x="0px"
   y="0px"
   viewBox="0 0 99.140625 99.140625"
   xml:space="preserve"
   width="540"
   height="540"
   inkscape:version="0.48.4 r9939"
   sodipodi:docname="GenericEntity.svg"
   inkscape:export-filename="C:\Projects\CSharp\Hyperwave\Hyperwave\Images\Icons\128\GenericEntity.png"
   inkscape:export-xdpi="21.333334"
   inkscape:export-ydpi="21.333334"><metadata
   id="metadata43"><rdf:RDF><cc:Work
       rdf:about=""><dc:format>image/svg+xml</dc:format><dc:type
         rdf:resource="http://purl.org/dc/dcmitype/StillImage" /><dc:title></dc:title></cc:Work></rdf:RDF></metadata><defs
   id="defs41" /><sodipodi:namedview
   pagecolor="#ffffff"
   bordercolor="#666666"
   borderopacity="1"
   objecttolerance="10"
   gridtolerance="10"
   guidetolerance="10"
   inkscape:pageopacity="0"
   inkscape:pageshadow="2"
   inkscape:window-width="1920"
   inkscape:window-height="1017"
   id="namedview39"
   showgrid="false"
   fit-margin-top="0"
   fit-margin-left="0"
   fit-margin-right="0"
   fit-margin-bottom="0"
   inkscape:zoom="0.4609375"
   inkscape:cx="-82.440678"
   inkscape:cy="-4.3389831"
   inkscape:window-x="-8"
   inkscape:window-y="-8"
   inkscape:window-maximized="1"
   inkscape:current-layer="Capa_1" />
<g
   id="g3800"><rect
     y="9.983778e-007"
     x="0"
     height="99.140625"
     width="99.140625"
     id="rect3020"
     style="fill:#4d4d4d;fill-opacity:1;fill-rule:evenodd;stroke:none" /><g
     transform="matrix(1.0001579,0,0,1,2.5628912,7.140626)"
     id="g3">
	<g
   id="g5">
		<path
   style="fill:#ffffff"
   inkscape:connector-curvature="0"
   id="path7"
   d="M 73.602,69.24 C 61.276,64.747 57.336,60.958 57.336,52.845 c 0,-4.871 3.764,-3.28 5.416,-12.2 0.686,-3.7 4.01,-0.06 4.646,-8.507 0,-3.367 -1.814,-4.203 -1.814,-4.203 0,0 0.922,-4.982 1.283,-8.816 C 67.314,14.342 64.107,2 47,2 29.893,2 26.684,14.342 27.133,19.119 c 0.361,3.834 1.283,8.816 1.283,8.816 0,0 -1.814,0.836 -1.814,4.203 0.635,8.447 3.959,4.807 4.645,8.507 1.654,8.919 5.416,7.329 5.416,12.2 0,8.113 -3.938,11.902 -16.264,16.395 C 8.033,73.746 0,78.339 0,81.473 0,84.604 0,92 0,92 h 47 47 c 0,0 0,-7.396 0,-10.527 0,-3.134 -8.033,-7.727 -20.398,-12.233 z" />
	</g>
</g></g>
<g
   id="g9"
   transform="translate(0,5.140626)">
</g>
<g
   id="g11"
   transform="translate(0,5.140626)">
</g>
<g
   id="g13"
   transform="translate(0,5.140626)">
</g>
<g
   id="g15"
   transform="translate(0,5.140626)">
</g>
<g
   id="g17"
   transform="translate(0,5.140626)">
</g>
<g
   id="g19"
   transform="translate(0,5.140626)">
</g>
<g
   id="g21"
   transform="translate(0,5.140626)">
</g>
<g
   id="g23"
   transform="translate(0,5.140626)">
</g>
<g
   id="g25"
   transform="translate(0,5.140626)">
</g>
<g
   id="g27"
   transform="translate(0,5.140626)">
</g>
<g
   id="g29"
   transform="translate(0,5.140626)">
</g>
<g
   id="g31"
   transform="translate(0,5.140626)">
</g>
<g
   id="g33"
   transform="translate(0,5.140626)">
</g>
<g
   id="g35"
   transform="translate(0,5.140626)">
</g>
<g
   id="g37"
   transform="translate(0,5.140626)">
</g>
</svg>