<?xml version="1.0" encoding="UTF-8" standalone="no"?>
<!-- Generator: Adobe Illustrator 19.1.0, SVG Export Plug-In . SVG Version: 6.00 Build 0)  -->

<svg
   xmlns:dc="http://purl.org/dc/elements/1.1/"
   xmlns:cc="http://creativecommons.org/ns#"
   xmlns:rdf="http://www.w3.org/1999/02/22-rdf-syntax-ns#"
   xmlns:svg="http://www.w3.org/2000/svg"
   xmlns="http://www.w3.org/2000/svg"
   xmlns:sodipodi="http://sodipodi.sourceforge.net/DTD/sodipodi-0.dtd"
   xmlns:inkscape="http://www.inkscape.org/namespaces/inkscape"
   version="1.1"
   id="Capa_1"
   x="0px"
   y="0px"
   viewBox="0 0 489.711 489.711"
   style="enable-background:new 0 0 489.711 489.711;"
   xml:space="preserve"
   width="512px"
   height="512px"
   inkscape:version="0.48.4 r9939"
   sodipodi:docname="reload.svg"
   inkscape:export-filename="C:\Projects\CSharp\Hyperwave\Hyperwave\Images\Icons\32\SyncMails.png"
   inkscape:export-xdpi="5.625"
   inkscape:export-ydpi="5.625"><metadata
   id="metadata45"><rdf:RDF><cc:Work
       rdf:about=""><dc:format>image/svg+xml</dc:format><dc:type
         rdf:resource="http://purl.org/dc/dcmitype/StillImage" /><dc:title></dc:title></cc:Work></rdf:RDF></metadata><defs
   id="defs43" /><sodipodi:namedview
   pagecolor="#ffffff"
   bordercolor="#666666"
   borderopacity="1"
   objecttolerance="10"
   gridtolerance="10"
   guidetolerance="10"
   inkscape:pageopacity="0"
   inkscape:pageshadow="2"
   inkscape:window-width="640"
   inkscape:window-height="480"
   id="namedview41"
   showgrid="false"
   inkscape:zoom="0.4609375"
   inkscape:cx="256"
   inkscape:cy="257.08475"
   inkscape:window-x="0"
   inkscape:window-y="0"
   inkscape:window-maximized="0"
   inkscape:current-layer="Capa_1" />
<g
   id="g3">
	<g
   id="g5">
		<path
   d="M112.156,97.111c72.3-65.4,180.5-66.4,253.8-6.7l-58.1,2.2c-7.5,0.3-13.3,6.5-13,14c0.3,7.3,6.3,13,13.5,13    c0.2,0,0.3,0,0.5,0l89.2-3.3c7.3-0.3,13-6.2,13-13.5v-1c0-0.2,0-0.3,0-0.5v-0.1l0,0l-3.3-88.2c-0.3-7.5-6.6-13.3-14-13    c-7.5,0.3-13.3,6.5-13,14l2.1,55.3c-36.3-29.7-81-46.9-128.8-49.3c-59.2-3-116.1,17.3-160,57.1c-60.4,54.7-86,137.9-66.8,217.1    c1.5,6.2,7,10.3,13.1,10.3c1.1,0,2.1-0.1,3.2-0.4c7.2-1.8,11.7-9.1,9.9-16.3C36.656,218.211,59.056,145.111,112.156,97.111z"
   fill="#FFFFFF"
   id="path7" />
		<path
   d="M462.456,195.511c-1.8-7.2-9.1-11.7-16.3-9.9c-7.2,1.8-11.7,9.1-9.9,16.3c16.9,69.6-5.6,142.7-58.7,190.7    c-37.3,33.7-84.1,50.3-130.7,50.3c-44.5,0-88.9-15.1-124.7-44.9l58.8-5.3c7.4-0.7,12.9-7.2,12.2-14.7s-7.2-12.9-14.7-12.2l-88.9,8    c-7.4,0.7-12.9,7.2-12.2,14.7l8,88.9c0.6,7,6.5,12.3,13.4,12.3c0.4,0,0.8,0,1.2-0.1c7.4-0.7,12.9-7.2,12.2-14.7l-4.8-54.1    c36.3,29.4,80.8,46.5,128.3,48.9c3.8,0.2,7.6,0.3,11.3,0.3c55.1,0,107.5-20.2,148.7-57.4    C456.056,357.911,481.656,274.811,462.456,195.511z"
   fill="#FFFFFF"
   id="path9" />
	</g>
</g>
<g
   id="g11">
</g>
<g
   id="g13">
</g>
<g
   id="g15">
</g>
<g
   id="g17">
</g>
<g
   id="g19">
</g>
<g
   id="g21">
</g>
<g
   id="g23">
</g>
<g
   id="g25">
</g>
<g
   id="g27">
</g>
<g
   id="g29">
</g>
<g
   id="g31">
</g>
<g
   id="g33">
</g>
<g
   id="g35">
</g>
<g
   id="g37">
</g>
<g
   id="g39">
</g>
</svg>