<?xml version="1.0" encoding="UTF-8" standalone="no"?>
<!-- Created with Inkscape (http://www.inkscape.org/) -->

<svg
   xmlns:dc="http://purl.org/dc/elements/1.1/"
   xmlns:cc="http://creativecommons.org/ns#"
   xmlns:rdf="http://www.w3.org/1999/02/22-rdf-syntax-ns#"
   xmlns:svg="http://www.w3.org/2000/svg"
   xmlns="http://www.w3.org/2000/svg"
   xmlns:sodipodi="http://sodipodi.sourceforge.net/DTD/sodipodi-0.dtd"
   xmlns:inkscape="http://www.inkscape.org/namespaces/inkscape"
   width="210mm"
   height="297mm"
   viewBox="0 0 210 297.00001"
   version="1.1"
   id="svg8"
   inkscape:version="0.92.4 (5da689c313, 2019-01-14)"
   sodipodi:docname="Browser.svg">
  <defs
     id="defs2">
    <filter
       inkscape:collect="always"
       style="color-interpolation-filters:sRGB"
       id="filter5329"
       x="-0.052798393"
       width="1.1055968"
       y="-0.052801607"
       height="1.1056032">
      <feGaussianBlur
         inkscape:collect="always"
         stdDeviation="0.74505532"
         id="feGaussianBlur5331" />
    </filter>
    <filter
       inkscape:collect="always"
       style="color-interpolation-filters:sRGB"
       id="filter5841"
       x="-0.1228929"
       width="1.2457858"
       y="-0.058412472"
       height="1.1168249">
      <feGaussianBlur
         inkscape:collect="always"
         stdDeviation="0.68799086"
         id="feGaussianBlur5843" />
    </filter>
    <filter
       inkscape:collect="always"
       style="color-interpolation-filters:sRGB"
       id="filter5845"
       x="-0.11475572"
       width="1.2295114"
       y="-0.058057973"
       height="1.1161159">
      <feGaussianBlur
         inkscape:collect="always"
         stdDeviation="0.68799086"
         id="feGaussianBlur5847" />
    </filter>
  </defs>
  <sodipodi:namedview
     id="base"
     pagecolor="#ffffff"
     bordercolor="#666666"
     borderopacity="1.0"
     inkscape:pageopacity="0.0"
     inkscape:pageshadow="2"
     inkscape:zoom="2.8"
     inkscape:cx="214.20687"
     inkscape:cy="295.04087"
     inkscape:document-units="mm"
     inkscape:current-layer="layer1"
     showgrid="false"
     inkscape:snap-global="false"
     units="mm"
     inkscape:window-width="1920"
     inkscape:window-height="1017"
     inkscape:window-x="-8"
     inkscape:window-y="-8"
     inkscape:window-maximized="1"
     inkscape:pagecheckerboard="true" />
  <metadata
     id="metadata5">
    <rdf:RDF>
      <cc:Work
         rdf:about="">
        <dc:format>image/svg+xml</dc:format>
        <dc:type
           rdf:resource="http://purl.org/dc/dcmitype/StillImage" />
        <dc:title />
      </cc:Work>
    </rdf:RDF>
  </metadata>
  <g
     inkscape:label="Layer 1"
     inkscape:groupmode="layer"
     id="layer1"
     transform="translate(0,1.6666667e-5)">
    <g
       id="g5867"
       transform="matrix(0.90447251,0,0,0.90452746,0.12642402,26.282614)"
       inkscape:export-filename="C:\Projects\CSharp\Hyperwave\Hyperwave.Browser\IconTemp\GlobeHigh_128.png"
       inkscape:export-xdpi="96"
       inkscape:export-ydpi="96">
      <g
         id="g5851">
        <path
           inkscape:connector-curvature="0"
           id="path5337"
           d="m 28.989488,266.89825 c -1.975944,0.22733 -4.005531,0.81024 -4.748944,2.19321 -1.616758,3.00759 4.514258,6.70012 3.726923,10.24907 -0.6659,3.00159 -6.072726,3.19295 -6.522155,6.52216 -0.288044,2.13375 0.991634,6.42002 3.583624,9.47572 A 16.212211,16.212211 0 0 0 35.794053,280.086 16.212211,16.212211 0 0 0 28.989488,266.89825 Z"
           style="opacity:1;fill:#505050;fill-opacity:1;fill-rule:evenodd;stroke:none;stroke-width:1.44224405;stroke-linecap:round;stroke-miterlimit:4;stroke-dasharray:none;stroke-opacity:1;filter:url(#filter5845)" />
        <path
           inkscape:connector-curvature="0"
           id="path5339"
           d="M 15.404444,264.47284 A 16.212211,16.212211 0 0 0 4.115,279.89965 16.212211,16.212211 0 0 0 10.463019,292.7404 c 0.07078,-0.0963 4.508525,-6.15325 3.528336,-9.30019 -0.650735,-2.08921 -5.043628,-1.56861 -5.404094,-3.72693 -0.826801,-4.95052 9.461838,-7.12021 8.944782,-12.1126 -0.112488,-1.08615 -1.013255,-2.17451 -2.127599,-3.12784 z"
           style="opacity:1;fill:#505050;fill-opacity:1;fill-rule:evenodd;stroke:none;stroke-width:1.44224405;stroke-linecap:round;stroke-miterlimit:4;stroke-dasharray:none;stroke-opacity:1;filter:url(#filter5841)" />
      </g>
      <g
         id="g5335">
        <path
           style="opacity:1;fill:#adadad;fill-opacity:1;fill-rule:evenodd;stroke:none;stroke-width:1.44224405;stroke-linecap:round;stroke-miterlimit:4;stroke-dasharray:none;stroke-opacity:1"
           d="m 28.706006,265.38634 c -1.975944,0.22733 -4.005531,0.81024 -4.748944,2.19321 -1.616758,3.00759 4.514258,6.70012 3.726923,10.24907 -0.6659,3.00159 -6.072726,3.19295 -6.522155,6.52216 -0.288044,2.13375 0.991634,6.42002 3.583624,9.47572 a 16.212211,16.212211 0 0 0 10.765117,-15.25241 16.212211,16.212211 0 0 0 -6.804565,-13.18775 z"
           id="circle831"
           inkscape:connector-curvature="0" />
        <path
           style="opacity:1;fill:#adadad;fill-opacity:1;fill-rule:evenodd;stroke:none;stroke-width:1.44224405;stroke-linecap:round;stroke-miterlimit:4;stroke-dasharray:none;stroke-opacity:1"
           d="m 15.120962,262.96093 a 16.212211,16.212211 0 0 0 -11.2894443,15.42681 16.212211,16.212211 0 0 0 6.3480193,12.84075 c 0.07078,-0.0963 4.508525,-6.15325 3.528336,-9.30019 -0.650735,-2.08921 -5.0436281,-1.56861 -5.4040944,-3.72693 -0.8268004,-4.95052 9.4618384,-7.12021 8.9447824,-12.1126 -0.112488,-1.08615 -1.013255,-2.17451 -2.127599,-3.12784 z"
           id="circle838"
           inkscape:connector-curvature="0" />
      </g>
      <path
         inkscape:connector-curvature="0"
         id="circle4614"
         d="m 20.044898,262.48393 c -9.34348,0 -16.9338489,7.59038 -16.9338489,16.93385 0,3.20926 0.895599,6.21128 2.449978,8.77001 a 0.72167998,0.72167998 0 0 0 0.223242,0.34777 c 3.0117743,4.69574 8.2742669,7.81349 14.2606289,7.81349 9.34348,0 16.933333,-7.5878 16.933333,-16.93127 0,-9.34347 -7.589853,-16.93385 -16.933333,-16.93385 z m -0.162264,1.44797 v 5.8198 h -6.970117 c 0.23816,-0.5008 0.491789,-0.97859 0.763262,-1.4242 1.664089,-2.73161 3.86047,-4.32492 6.206855,-4.3956 z m 1.441257,0.14831 c 1.920529,0.46232 3.691065,1.9541 5.088059,4.24729 0.271474,0.44561 0.525103,0.9234 0.763263,1.4242 h -5.851322 z m -6.799069,0.85938 c -0.768747,0.74555 -1.467863,1.63415 -2.079458,2.63808 -0.410194,0.67334 -0.782172,1.40232 -1.11673,2.17403 H 7.9371101 c 1.7118733,-2.14236 3.9797219,-3.8187 6.5877119,-4.81211 z m 11.040671,5.2e-4 c 2.607299,0.99344 4.874336,2.66952 6.585643,4.81159 h -3.389974 c -0.334558,-0.77171 -0.706535,-1.50069 -1.116727,-2.17403 -0.611457,-1.00372 -1.310404,-1.89211 -2.078942,-2.63756 z m -18.6515769,6.25286 h 3.8545449 c -0.740286,2.13923 -1.1957526,4.55596 -1.2970766,7.12874 H 4.5957131 c 0.18201,-2.6081 1.006097,-5.03655 2.318203,-7.12874 z m 5.3872679,0 h 7.58145 v 7.12874 h -8.967927 c 0.109871,-2.60985 0.605718,-5.04052 1.386477,-7.12874 z m 9.022707,0 h 6.462655 c 0.780758,2.08822 1.276606,4.51889 1.386477,7.12874 h -7.849132 z m 7.997444,0 h 3.852995 c 1.326348,2.11531 2.154833,4.57411 2.324404,7.21505 a 0.721675,0.721675 0 0 0 -0.340548,-0.0863 h -4.539773 c -0.101325,-2.57278 -0.556792,-4.98951 -1.297078,-7.12874 z m 6.207374,8.4682 c -0.04366,2.83104 -0.840624,5.47655 -2.205035,7.74268 a 0.72167998,0.72167998 0 0 0 -0.42168,-0.13641 H 29.44846 c 0.734234,-2.25407 1.154985,-4.80097 1.188556,-7.5024 h 4.52117 a 0.721675,0.721675 0 0 0 0.370523,-0.10387 z m -30.9671029,0.10387 h 4.8906593 c 0.03357,2.70143 0.454837,5.24833 1.1890736,7.5024 H 6.6865411 c -1.299313,-2.20798 -2.064721,-4.76653 -2.124935,-7.5024 z m 6.3324289,0 h 8.988599 v 7.5024 h -7.714773 c -0.77419,-2.20441 -1.237406,-4.76444 -1.273826,-7.5024 z m 10.429856,0 h 7.869804 c -0.03642,2.73794 -0.49965,5.29802 -1.273826,7.5024 h -6.595978 z m -13.6792699,8.9457 h 3.5248509 c 0.373133,0.91151 0.800163,1.76366 1.275892,2.54455 0.611611,1.00396 1.31069,1.89304 2.079458,2.63861 -2.758064,-1.05032 -5.1384066,-2.86197 -6.8802009,-5.18316 z m 5.0952979,0 h 7.142715 v 6.19032 c -2.346383,-0.0707 -4.542768,-1.66399 -6.206855,-4.3956 -0.337865,-0.55459 -0.650314,-1.15589 -0.93586,-1.79472 z m 8.583972,0 h 6.02392 c -0.285546,0.63883 -0.597996,1.24013 -0.935861,1.79472 -1.396992,2.2932 -3.167536,3.78497 -5.088059,4.2473 z m 7.596434,0 h 3.5233 c -1.74126,2.32092 -4.120703,4.13279 -6.878132,5.18316 0.768659,-0.74552 1.4674,-1.63476 2.078942,-2.63861 0.475726,-0.78089 0.902756,-1.63304 1.27589,-2.54455 z"
         style="color:#000000;font-style:normal;font-variant:normal;font-weight:normal;font-stretch:normal;font-size:medium;line-height:normal;font-family:sans-serif;font-variant-ligatures:normal;font-variant-position:normal;font-variant-caps:normal;font-variant-numeric:normal;font-variant-alternates:normal;font-feature-settings:normal;text-indent:0;text-align:start;text-decoration:none;text-decoration-line:none;text-decoration-style:solid;text-decoration-color:#000000;letter-spacing:normal;word-spacing:normal;text-transform:none;writing-mode:lr-tb;direction:ltr;text-orientation:mixed;dominant-baseline:auto;baseline-shift:baseline;text-anchor:start;white-space:normal;shape-padding:0;clip-rule:nonzero;display:inline;overflow:visible;visibility:visible;opacity:1;isolation:auto;mix-blend-mode:normal;color-interpolation:sRGB;color-interpolation-filters:linearRGB;solid-color:#000000;solid-opacity:1;vector-effect:none;fill:#505050;fill-opacity:1;fill-rule:evenodd;stroke:none;stroke-width:1.44224405;stroke-linecap:round;stroke-linejoin:miter;stroke-miterlimit:4;stroke-dasharray:none;stroke-dashoffset:0;stroke-opacity:1;filter:url(#filter5329);color-rendering:auto;image-rendering:auto;shape-rendering:auto;text-rendering:auto;enable-background:accumulate" />
      <g
         id="g4612">
        <circle
           style="opacity:1;fill:none;fill-opacity:1;fill-rule:evenodd;stroke:#f7f7f7;stroke-width:1.44224405;stroke-linecap:round;stroke-miterlimit:4;stroke-dasharray:none;stroke-opacity:1"
           id="path10"
           cx="19.484673"
           cy="278.57407"
           r="16.212212" />
        <ellipse
           cy="278.57407"
           cx="19.484673"
           id="circle817"
           style="opacity:1;fill:none;fill-opacity:1;fill-rule:evenodd;stroke:#f7f7f7;stroke-width:1.44224405;stroke-linecap:round;stroke-miterlimit:4;stroke-dasharray:none;stroke-opacity:1"
           rx="9.8764048"
           ry="16.212212" />
        <path
           style="opacity:1;fill:none;fill-opacity:1;fill-rule:evenodd;stroke:#f7f7f7;stroke-width:1.44224405;stroke-linecap:round;stroke-miterlimit:4;stroke-dasharray:none;stroke-opacity:1"
           d="M 3.440246,278.20133 H 34.59736"
           id="path821"
           inkscape:connector-curvature="0" />
        <path
           style="opacity:1;fill:none;fill-opacity:1;fill-rule:evenodd;stroke:#f7f7f7;stroke-width:1.44224405;stroke-linecap:round;stroke-miterlimit:4;stroke-dasharray:none;stroke-opacity:1"
           d="m 20.043714,262.54816 v 32.05172"
           id="path823"
           inkscape:connector-curvature="0" />
        <path
           style="opacity:1;fill:none;fill-opacity:1;fill-rule:evenodd;stroke:#f7f7f7;stroke-width:1.44224405;stroke-linecap:round;stroke-miterlimit:4;stroke-dasharray:none;stroke-opacity:1"
           d="M 6.0676689,269.62936 H 32.715329"
           id="path825"
           inkscape:connector-curvature="0" />
        <path
           inkscape:connector-curvature="0"
           id="path827"
           d="M 5.6949744,287.146 H 32.342634"
           style="opacity:1;fill:none;fill-opacity:1;fill-rule:evenodd;stroke:#f7f7f7;stroke-width:1.44224405;stroke-linecap:round;stroke-miterlimit:4;stroke-dasharray:none;stroke-opacity:1" />
      </g>
    </g>
    <g
       id="g6235"
       transform="matrix(1.0876989,0,0,1.078647,-3.8289029,-23.275816)"
       inkscape:export-filename="C:\Projects\CSharp\Hyperwave\Hyperwave.Browser\IconTemp\GlobeLow_128.png"
       inkscape:export-xdpi="96"
       inkscape:export-ydpi="96">
      <g
         id="g6219">
        <path
           style="opacity:1;fill:#7d7d7d;fill-opacity:1;fill-rule:evenodd;stroke:none;stroke-width:1.30450976;stroke-linecap:round;stroke-miterlimit:4;stroke-dasharray:none;stroke-opacity:1"
           d="m 66.430993,267.5562 c -1.787187,0.20563 -3.622892,0.73289 -4.295289,1.98382 -1.462313,2.72045 4.083022,6.06044 3.370899,9.27057 -0.602288,2.71502 -5.492613,2.88811 -5.89911,5.89947 -0.260527,1.93003 0.896906,5.80708 3.24129,8.57105 a 14.663499,14.66439 0 0 0 9.736752,-13.79623 14.663499,14.66439 0 0 0 -6.154542,-11.92868 z"
           id="path5869"
           inkscape:connector-curvature="0" />
        <path
           style="opacity:1;fill:#7d7d7d;fill-opacity:1;fill-rule:evenodd;stroke:none;stroke-width:1.30450976;stroke-linecap:round;stroke-miterlimit:4;stroke-dasharray:none;stroke-opacity:1"
           d="m 55.731195,265.89152 a 14.663499,14.66439 0 0 0 -10.210991,13.95398 14.663499,14.66439 0 0 0 5.741608,11.61481 c 0.06402,-0.0871 4.077837,-5.56579 3.191283,-8.41228 -0.588572,-1.88975 -4.561823,-1.41885 -4.887854,-3.37111 -0.747819,-4.47788 8.557972,-6.44043 8.090309,-10.95618 -0.101742,-0.98245 -0.916461,-1.9669 -1.924355,-2.82922 z"
           id="path5871"
           inkscape:connector-curvature="0" />
      </g>
      <g
         transform="matrix(0.90447251,0,0,0.90452746,41.325829,27.896999)"
         id="g5879">
        <path
           inkscape:connector-curvature="0"
           id="path5875"
           d="m 28.706006,265.38634 c -1.975944,0.22733 -4.005531,0.81024 -4.748944,2.19321 -1.616758,3.00759 4.514258,6.70012 3.726923,10.24907 -0.6659,3.00159 -6.072726,3.19295 -6.522155,6.52216 -0.288044,2.13375 0.991634,6.42002 3.583624,9.47572 a 16.212211,16.212211 0 0 0 10.765117,-15.25241 16.212211,16.212211 0 0 0 -6.804565,-13.18775 z"
           style="opacity:1;fill:#adadad;fill-opacity:1;fill-rule:evenodd;stroke:none;stroke-width:1.44224405;stroke-linecap:round;stroke-miterlimit:4;stroke-dasharray:none;stroke-opacity:1" />
        <path
           inkscape:connector-curvature="0"
           id="path5877"
           d="m 15.120962,262.96093 a 16.212211,16.212211 0 0 0 -11.2894443,15.42681 16.212211,16.212211 0 0 0 6.3480193,12.84075 c 0.07078,-0.0963 4.508525,-6.15325 3.528336,-9.30019 -0.650735,-2.08921 -5.0436281,-1.56861 -5.4040944,-3.72693 -0.8268004,-4.95052 9.4618384,-7.12021 8.9447824,-12.1126 -0.112488,-1.08615 -1.013255,-2.17451 -2.127599,-3.12784 z"
           style="opacity:1;fill:#adadad;fill-opacity:1;fill-rule:evenodd;stroke:none;stroke-width:1.44224405;stroke-linecap:round;stroke-miterlimit:4;stroke-dasharray:none;stroke-opacity:1" />
      </g>
      <path
         transform="matrix(0.90447251,0,0,0.90452746,41.325829,27.896999)"
         style="color:#000000;font-style:normal;font-variant:normal;font-weight:normal;font-stretch:normal;font-size:medium;line-height:normal;font-family:sans-serif;font-variant-ligatures:normal;font-variant-position:normal;font-variant-caps:normal;font-variant-numeric:normal;font-variant-alternates:normal;font-feature-settings:normal;text-indent:0;text-align:start;text-decoration:none;text-decoration-line:none;text-decoration-style:solid;text-decoration-color:#000000;letter-spacing:normal;word-spacing:normal;text-transform:none;writing-mode:lr-tb;direction:ltr;text-orientation:mixed;dominant-baseline:auto;baseline-shift:baseline;text-anchor:start;white-space:normal;shape-padding:0;clip-rule:nonzero;display:inline;overflow:visible;visibility:visible;opacity:1;isolation:auto;mix-blend-mode:normal;color-interpolation:sRGB;color-interpolation-filters:linearRGB;solid-color:#000000;solid-opacity:1;vector-effect:none;fill:#767676;fill-opacity:1;fill-rule:evenodd;stroke:none;stroke-width:1.44224405;stroke-linecap:round;stroke-linejoin:miter;stroke-miterlimit:4;stroke-dasharray:none;stroke-dashoffset:0;stroke-opacity:1;color-rendering:auto;image-rendering:auto;shape-rendering:auto;text-rendering:auto;enable-background:accumulate"
         d="m 20.044898,262.48393 c -9.34348,0 -16.9338489,7.59038 -16.9338489,16.93385 0,3.20926 0.895599,6.21128 2.449978,8.77001 a 0.72167998,0.72167998 0 0 0 0.223242,0.34777 c 3.0117743,4.69574 8.2742669,7.81349 14.2606289,7.81349 9.34348,0 16.933333,-7.5878 16.933333,-16.93127 0,-9.34347 -7.589853,-16.93385 -16.933333,-16.93385 z m -0.162264,1.44797 v 5.8198 h -6.970117 c 0.23816,-0.5008 0.491789,-0.97859 0.763262,-1.4242 1.664089,-2.73161 3.86047,-4.32492 6.206855,-4.3956 z m 1.441257,0.14831 c 1.920529,0.46232 3.691065,1.9541 5.088059,4.24729 0.271474,0.44561 0.525103,0.9234 0.763263,1.4242 h -5.851322 z m -6.799069,0.85938 c -0.768747,0.74555 -1.467863,1.63415 -2.079458,2.63808 -0.410194,0.67334 -0.782172,1.40232 -1.11673,2.17403 H 7.9371101 c 1.7118733,-2.14236 3.9797219,-3.8187 6.5877119,-4.81211 z m 11.040671,5.2e-4 c 2.607299,0.99344 4.874336,2.66952 6.585643,4.81159 h -3.389974 c -0.334558,-0.77171 -0.706535,-1.50069 -1.116727,-2.17403 -0.611457,-1.00372 -1.310404,-1.89211 -2.078942,-2.63756 z m -18.6515769,6.25286 h 3.8545449 c -0.740286,2.13923 -1.1957526,4.55596 -1.2970766,7.12874 H 4.5957131 c 0.18201,-2.6081 1.006097,-5.03655 2.318203,-7.12874 z m 5.3872679,0 h 7.58145 v 7.12874 h -8.967927 c 0.109871,-2.60985 0.605718,-5.04052 1.386477,-7.12874 z m 9.022707,0 h 6.462655 c 0.780758,2.08822 1.276606,4.51889 1.386477,7.12874 h -7.849132 z m 7.997444,0 h 3.852995 c 1.326348,2.11531 2.154833,4.57411 2.324404,7.21505 a 0.721675,0.721675 0 0 0 -0.340548,-0.0863 h -4.539773 c -0.101325,-2.57278 -0.556792,-4.98951 -1.297078,-7.12874 z m 6.207374,8.4682 c -0.04366,2.83104 -0.840624,5.47655 -2.205035,7.74268 a 0.72167998,0.72167998 0 0 0 -0.42168,-0.13641 H 29.44846 c 0.734234,-2.25407 1.154985,-4.80097 1.188556,-7.5024 h 4.52117 a 0.721675,0.721675 0 0 0 0.370523,-0.10387 z m -30.9671029,0.10387 h 4.8906593 c 0.03357,2.70143 0.454837,5.24833 1.1890736,7.5024 H 6.6865411 c -1.299313,-2.20798 -2.064721,-4.76653 -2.124935,-7.5024 z m 6.3324289,0 h 8.988599 v 7.5024 h -7.714773 c -0.77419,-2.20441 -1.237406,-4.76444 -1.273826,-7.5024 z m 10.429856,0 h 7.869804 c -0.03642,2.73794 -0.49965,5.29802 -1.273826,7.5024 h -6.595978 z m -13.6792699,8.9457 h 3.5248509 c 0.373133,0.91151 0.800163,1.76366 1.275892,2.54455 0.611611,1.00396 1.31069,1.89304 2.079458,2.63861 -2.758064,-1.05032 -5.1384066,-2.86197 -6.8802009,-5.18316 z m 5.0952979,0 h 7.142715 v 6.19032 c -2.346383,-0.0707 -4.542768,-1.66399 -6.206855,-4.3956 -0.337865,-0.55459 -0.650314,-1.15589 -0.93586,-1.79472 z m 8.583972,0 h 6.02392 c -0.285546,0.63883 -0.597996,1.24013 -0.935861,1.79472 -1.396992,2.2932 -3.167536,3.78497 -5.088059,4.2473 z m 7.596434,0 h 3.5233 c -1.74126,2.32092 -4.120703,4.13279 -6.878132,5.18316 0.768659,-0.74552 1.4674,-1.63476 2.078942,-2.63861 0.475726,-0.78089 0.902756,-1.63304 1.27589,-2.54455 z"
         id="path5881"
         inkscape:connector-curvature="0" />
      <g
         transform="matrix(0.90447251,0,0,0.90452746,41.325829,27.896999)"
         id="g5895">
        <circle
           r="16.212212"
           cy="278.57407"
           cx="19.484673"
           id="circle5883"
           style="opacity:1;fill:none;fill-opacity:1;fill-rule:evenodd;stroke:#f7f7f7;stroke-width:1.44224405;stroke-linecap:round;stroke-miterlimit:4;stroke-dasharray:none;stroke-opacity:1" />
        <ellipse
           ry="16.212212"
           rx="9.8764048"
           style="opacity:1;fill:none;fill-opacity:1;fill-rule:evenodd;stroke:#f7f7f7;stroke-width:1.44224405;stroke-linecap:round;stroke-miterlimit:4;stroke-dasharray:none;stroke-opacity:1"
           id="ellipse5885"
           cx="19.484673"
           cy="278.57407" />
        <path
           inkscape:connector-curvature="0"
           id="path5887"
           d="M 3.440246,278.20133 H 34.59736"
           style="opacity:1;fill:none;fill-opacity:1;fill-rule:evenodd;stroke:#f7f7f7;stroke-width:1.44224405;stroke-linecap:round;stroke-miterlimit:4;stroke-dasharray:none;stroke-opacity:1" />
        <path
           inkscape:connector-curvature="0"
           id="path5889"
           d="m 20.043714,262.54816 v 32.05172"
           style="opacity:1;fill:none;fill-opacity:1;fill-rule:evenodd;stroke:#f7f7f7;stroke-width:1.44224405;stroke-linecap:round;stroke-miterlimit:4;stroke-dasharray:none;stroke-opacity:1" />
        <path
           inkscape:connector-curvature="0"
           id="path5891"
           d="M 6.0676689,269.62936 H 32.715329"
           style="opacity:1;fill:none;fill-opacity:1;fill-rule:evenodd;stroke:#f7f7f7;stroke-width:1.44224405;stroke-linecap:round;stroke-miterlimit:4;stroke-dasharray:none;stroke-opacity:1" />
        <path
           style="opacity:1;fill:none;fill-opacity:1;fill-rule:evenodd;stroke:#f7f7f7;stroke-width:1.44224405;stroke-linecap:round;stroke-miterlimit:4;stroke-dasharray:none;stroke-opacity:1"
           d="M 5.6949744,287.146 H 32.342634"
           id="path5893"
           inkscape:connector-curvature="0" />
      </g>
    </g>
    <g
       transform="matrix(0.45223756,0,0,0.45226504,1.0081751,124.36067)"
       id="g6265"
       inkscape:export-filename="C:\Projects\CSharp\Hyperwave\Hyperwave.Browser\IconTemp\GlobeHigh_64.png"
       inkscape:export-xdpi="96"
       inkscape:export-ydpi="96">
      <g
         id="g6241">
        <path
           style="opacity:1;fill:#505050;fill-opacity:1;fill-rule:evenodd;stroke:none;stroke-width:1.44224405;stroke-linecap:round;stroke-miterlimit:4;stroke-dasharray:none;stroke-opacity:1;filter:url(#filter5845)"
           d="m 28.989488,266.89825 c -1.975944,0.22733 -4.005531,0.81024 -4.748944,2.19321 -1.616758,3.00759 4.514258,6.70012 3.726923,10.24907 -0.6659,3.00159 -6.072726,3.19295 -6.522155,6.52216 -0.288044,2.13375 0.991634,6.42002 3.583624,9.47572 A 16.212211,16.212211 0 0 0 35.794053,280.086 16.212211,16.212211 0 0 0 28.989488,266.89825 Z"
           id="path6237"
           inkscape:connector-curvature="0" />
        <path
           style="opacity:1;fill:#505050;fill-opacity:1;fill-rule:evenodd;stroke:none;stroke-width:1.44224405;stroke-linecap:round;stroke-miterlimit:4;stroke-dasharray:none;stroke-opacity:1;filter:url(#filter5841)"
           d="M 15.404444,264.47284 A 16.212211,16.212211 0 0 0 4.115,279.89965 16.212211,16.212211 0 0 0 10.463019,292.7404 c 0.07078,-0.0963 4.508525,-6.15325 3.528336,-9.30019 -0.650735,-2.08921 -5.043628,-1.56861 -5.404094,-3.72693 -0.826801,-4.95052 9.461838,-7.12021 8.944782,-12.1126 -0.112488,-1.08615 -1.013255,-2.17451 -2.127599,-3.12784 z"
           id="path6239"
           inkscape:connector-curvature="0" />
      </g>
      <g
         id="g6247">
        <path
           inkscape:connector-curvature="0"
           id="path6243"
           d="m 28.706006,265.38634 c -1.975944,0.22733 -4.005531,0.81024 -4.748944,2.19321 -1.616758,3.00759 4.514258,6.70012 3.726923,10.24907 -0.6659,3.00159 -6.072726,3.19295 -6.522155,6.52216 -0.288044,2.13375 0.991634,6.42002 3.583624,9.47572 a 16.212211,16.212211 0 0 0 10.765117,-15.25241 16.212211,16.212211 0 0 0 -6.804565,-13.18775 z"
           style="opacity:1;fill:#adadad;fill-opacity:1;fill-rule:evenodd;stroke:none;stroke-width:1.44224405;stroke-linecap:round;stroke-miterlimit:4;stroke-dasharray:none;stroke-opacity:1" />
        <path
           inkscape:connector-curvature="0"
           id="path6245"
           d="m 15.120962,262.96093 a 16.212211,16.212211 0 0 0 -11.2894443,15.42681 16.212211,16.212211 0 0 0 6.3480193,12.84075 c 0.07078,-0.0963 4.508525,-6.15325 3.528336,-9.30019 -0.650735,-2.08921 -5.0436281,-1.56861 -5.4040944,-3.72693 -0.8268004,-4.95052 9.4618384,-7.12021 8.9447824,-12.1126 -0.112488,-1.08615 -1.013255,-2.17451 -2.127599,-3.12784 z"
           style="opacity:1;fill:#adadad;fill-opacity:1;fill-rule:evenodd;stroke:none;stroke-width:1.44224405;stroke-linecap:round;stroke-miterlimit:4;stroke-dasharray:none;stroke-opacity:1" />
      </g>
      <path
         style="color:#000000;font-style:normal;font-variant:normal;font-weight:normal;font-stretch:normal;font-size:medium;line-height:normal;font-family:sans-serif;font-variant-ligatures:normal;font-variant-position:normal;font-variant-caps:normal;font-variant-numeric:normal;font-variant-alternates:normal;font-feature-settings:normal;text-indent:0;text-align:start;text-decoration:none;text-decoration-line:none;text-decoration-style:solid;text-decoration-color:#000000;letter-spacing:normal;word-spacing:normal;text-transform:none;writing-mode:lr-tb;direction:ltr;text-orientation:mixed;dominant-baseline:auto;baseline-shift:baseline;text-anchor:start;white-space:normal;shape-padding:0;clip-rule:nonzero;display:inline;overflow:visible;visibility:visible;opacity:1;isolation:auto;mix-blend-mode:normal;color-interpolation:sRGB;color-interpolation-filters:linearRGB;solid-color:#000000;solid-opacity:1;vector-effect:none;fill:#505050;fill-opacity:1;fill-rule:evenodd;stroke:none;stroke-width:1.44224405;stroke-linecap:round;stroke-linejoin:miter;stroke-miterlimit:4;stroke-dasharray:none;stroke-dashoffset:0;stroke-opacity:1;filter:url(#filter5329);color-rendering:auto;image-rendering:auto;shape-rendering:auto;text-rendering:auto;enable-background:accumulate"
         d="m 20.044898,262.48393 c -9.34348,0 -16.9338489,7.59038 -16.9338489,16.93385 0,3.20926 0.895599,6.21128 2.449978,8.77001 a 0.72167998,0.72167998 0 0 0 0.223242,0.34777 c 3.0117743,4.69574 8.2742669,7.81349 14.2606289,7.81349 9.34348,0 16.933333,-7.5878 16.933333,-16.93127 0,-9.34347 -7.589853,-16.93385 -16.933333,-16.93385 z m -0.162264,1.44797 v 5.8198 h -6.970117 c 0.23816,-0.5008 0.491789,-0.97859 0.763262,-1.4242 1.664089,-2.73161 3.86047,-4.32492 6.206855,-4.3956 z m 1.441257,0.14831 c 1.920529,0.46232 3.691065,1.9541 5.088059,4.24729 0.271474,0.44561 0.525103,0.9234 0.763263,1.4242 h -5.851322 z m -6.799069,0.85938 c -0.768747,0.74555 -1.467863,1.63415 -2.079458,2.63808 -0.410194,0.67334 -0.782172,1.40232 -1.11673,2.17403 H 7.9371101 c 1.7118733,-2.14236 3.9797219,-3.8187 6.5877119,-4.81211 z m 11.040671,5.2e-4 c 2.607299,0.99344 4.874336,2.66952 6.585643,4.81159 h -3.389974 c -0.334558,-0.77171 -0.706535,-1.50069 -1.116727,-2.17403 -0.611457,-1.00372 -1.310404,-1.89211 -2.078942,-2.63756 z m -18.6515769,6.25286 h 3.8545449 c -0.740286,2.13923 -1.1957526,4.55596 -1.2970766,7.12874 H 4.5957131 c 0.18201,-2.6081 1.006097,-5.03655 2.318203,-7.12874 z m 5.3872679,0 h 7.58145 v 7.12874 h -8.967927 c 0.109871,-2.60985 0.605718,-5.04052 1.386477,-7.12874 z m 9.022707,0 h 6.462655 c 0.780758,2.08822 1.276606,4.51889 1.386477,7.12874 h -7.849132 z m 7.997444,0 h 3.852995 c 1.326348,2.11531 2.154833,4.57411 2.324404,7.21505 a 0.721675,0.721675 0 0 0 -0.340548,-0.0863 h -4.539773 c -0.101325,-2.57278 -0.556792,-4.98951 -1.297078,-7.12874 z m 6.207374,8.4682 c -0.04366,2.83104 -0.840624,5.47655 -2.205035,7.74268 a 0.72167998,0.72167998 0 0 0 -0.42168,-0.13641 H 29.44846 c 0.734234,-2.25407 1.154985,-4.80097 1.188556,-7.5024 h 4.52117 a 0.721675,0.721675 0 0 0 0.370523,-0.10387 z m -30.9671029,0.10387 h 4.8906593 c 0.03357,2.70143 0.454837,5.24833 1.1890736,7.5024 H 6.6865411 c -1.299313,-2.20798 -2.064721,-4.76653 -2.124935,-7.5024 z m 6.3324289,0 h 8.988599 v 7.5024 h -7.714773 c -0.77419,-2.20441 -1.237406,-4.76444 -1.273826,-7.5024 z m 10.429856,0 h 7.869804 c -0.03642,2.73794 -0.49965,5.29802 -1.273826,7.5024 h -6.595978 z m -13.6792699,8.9457 h 3.5248509 c 0.373133,0.91151 0.800163,1.76366 1.275892,2.54455 0.611611,1.00396 1.31069,1.89304 2.079458,2.63861 -2.758064,-1.05032 -5.1384066,-2.86197 -6.8802009,-5.18316 z m 5.0952979,0 h 7.142715 v 6.19032 c -2.346383,-0.0707 -4.542768,-1.66399 -6.206855,-4.3956 -0.337865,-0.55459 -0.650314,-1.15589 -0.93586,-1.79472 z m 8.583972,0 h 6.02392 c -0.285546,0.63883 -0.597996,1.24013 -0.935861,1.79472 -1.396992,2.2932 -3.167536,3.78497 -5.088059,4.2473 z m 7.596434,0 h 3.5233 c -1.74126,2.32092 -4.120703,4.13279 -6.878132,5.18316 0.768659,-0.74552 1.4674,-1.63476 2.078942,-2.63861 0.475726,-0.78089 0.902756,-1.63304 1.27589,-2.54455 z"
         id="path6249"
         inkscape:connector-curvature="0" />
      <g
         id="g6263">
        <circle
           r="16.212212"
           cy="278.57407"
           cx="19.484673"
           id="circle6251"
           style="opacity:1;fill:none;fill-opacity:1;fill-rule:evenodd;stroke:#f7f7f7;stroke-width:1.44224405;stroke-linecap:round;stroke-miterlimit:4;stroke-dasharray:none;stroke-opacity:1" />
        <ellipse
           ry="16.212212"
           rx="9.8764048"
           style="opacity:1;fill:none;fill-opacity:1;fill-rule:evenodd;stroke:#f7f7f7;stroke-width:1.44224405;stroke-linecap:round;stroke-miterlimit:4;stroke-dasharray:none;stroke-opacity:1"
           id="ellipse6253"
           cx="19.484673"
           cy="278.57407" />
        <path
           inkscape:connector-curvature="0"
           id="path6255"
           d="M 3.440246,278.20133 H 34.59736"
           style="opacity:1;fill:none;fill-opacity:1;fill-rule:evenodd;stroke:#f7f7f7;stroke-width:1.44224405;stroke-linecap:round;stroke-miterlimit:4;stroke-dasharray:none;stroke-opacity:1" />
        <path
           inkscape:connector-curvature="0"
           id="path6257"
           d="m 20.043714,262.54816 v 32.05172"
           style="opacity:1;fill:none;fill-opacity:1;fill-rule:evenodd;stroke:#f7f7f7;stroke-width:1.44224405;stroke-linecap:round;stroke-miterlimit:4;stroke-dasharray:none;stroke-opacity:1" />
        <path
           inkscape:connector-curvature="0"
           id="path6259"
           d="M 6.0676689,269.62936 H 32.715329"
           style="opacity:1;fill:none;fill-opacity:1;fill-rule:evenodd;stroke:#f7f7f7;stroke-width:1.44224405;stroke-linecap:round;stroke-miterlimit:4;stroke-dasharray:none;stroke-opacity:1" />
        <path
           style="opacity:1;fill:none;fill-opacity:1;fill-rule:evenodd;stroke:#f7f7f7;stroke-width:1.44224405;stroke-linecap:round;stroke-miterlimit:4;stroke-dasharray:none;stroke-opacity:1"
           d="M 5.6949744,287.146 H 32.342634"
           id="path6261"
           inkscape:connector-curvature="0" />
      </g>
    </g>
    <g
       transform="matrix(0.5438126,0,0,0.53928696,20.186212,99.591137)"
       id="g6295"
       inkscape:export-filename="C:\Projects\CSharp\Hyperwave\Hyperwave.Browser\IconTemp\GlobeLow_64.png"
       inkscape:export-xdpi="96"
       inkscape:export-ydpi="96">
      <g
         id="g6271">
        <path
           inkscape:connector-curvature="0"
           id="path6267"
           d="m 66.430993,267.5562 c -1.787187,0.20563 -3.622892,0.73289 -4.295289,1.98382 -1.462313,2.72045 4.083022,6.06044 3.370899,9.27057 -0.602288,2.71502 -5.492613,2.88811 -5.89911,5.89947 -0.260527,1.93003 0.896906,5.80708 3.24129,8.57105 a 14.663499,14.66439 0 0 0 9.736752,-13.79623 14.663499,14.66439 0 0 0 -6.154542,-11.92868 z"
           style="opacity:1;fill:#7d7d7d;fill-opacity:1;fill-rule:evenodd;stroke:none;stroke-width:1.30450976;stroke-linecap:round;stroke-miterlimit:4;stroke-dasharray:none;stroke-opacity:1" />
        <path
           inkscape:connector-curvature="0"
           id="path6269"
           d="m 55.731195,265.89152 a 14.663499,14.66439 0 0 0 -10.210991,13.95398 14.663499,14.66439 0 0 0 5.741608,11.61481 c 0.06402,-0.0871 4.077837,-5.56579 3.191283,-8.41228 -0.588572,-1.88975 -4.561823,-1.41885 -4.887854,-3.37111 -0.747819,-4.47788 8.557972,-6.44043 8.090309,-10.95618 -0.101742,-0.98245 -0.916461,-1.9669 -1.924355,-2.82922 z"
           style="opacity:1;fill:#7d7d7d;fill-opacity:1;fill-rule:evenodd;stroke:none;stroke-width:1.30450976;stroke-linecap:round;stroke-miterlimit:4;stroke-dasharray:none;stroke-opacity:1" />
      </g>
      <g
         id="g6277"
         transform="matrix(0.90447251,0,0,0.90452746,41.325829,27.896999)">
        <path
           style="opacity:1;fill:#adadad;fill-opacity:1;fill-rule:evenodd;stroke:none;stroke-width:1.44224405;stroke-linecap:round;stroke-miterlimit:4;stroke-dasharray:none;stroke-opacity:1"
           d="m 28.706006,265.38634 c -1.975944,0.22733 -4.005531,0.81024 -4.748944,2.19321 -1.616758,3.00759 4.514258,6.70012 3.726923,10.24907 -0.6659,3.00159 -6.072726,3.19295 -6.522155,6.52216 -0.288044,2.13375 0.991634,6.42002 3.583624,9.47572 a 16.212211,16.212211 0 0 0 10.765117,-15.25241 16.212211,16.212211 0 0 0 -6.804565,-13.18775 z"
           id="path6273"
           inkscape:connector-curvature="0" />
        <path
           style="opacity:1;fill:#adadad;fill-opacity:1;fill-rule:evenodd;stroke:none;stroke-width:1.44224405;stroke-linecap:round;stroke-miterlimit:4;stroke-dasharray:none;stroke-opacity:1"
           d="m 15.120962,262.96093 a 16.212211,16.212211 0 0 0 -11.2894443,15.42681 16.212211,16.212211 0 0 0 6.3480193,12.84075 c 0.07078,-0.0963 4.508525,-6.15325 3.528336,-9.30019 -0.650735,-2.08921 -5.0436281,-1.56861 -5.4040944,-3.72693 -0.8268004,-4.95052 9.4618384,-7.12021 8.9447824,-12.1126 -0.112488,-1.08615 -1.013255,-2.17451 -2.127599,-3.12784 z"
           id="path6275"
           inkscape:connector-curvature="0" />
      </g>
      <path
         inkscape:connector-curvature="0"
         id="path6279"
         d="m 20.044898,262.48393 c -9.34348,0 -16.9338489,7.59038 -16.9338489,16.93385 0,3.20926 0.895599,6.21128 2.449978,8.77001 a 0.72167998,0.72167998 0 0 0 0.223242,0.34777 c 3.0117743,4.69574 8.2742669,7.81349 14.2606289,7.81349 9.34348,0 16.933333,-7.5878 16.933333,-16.93127 0,-9.34347 -7.589853,-16.93385 -16.933333,-16.93385 z m -0.162264,1.44797 v 5.8198 h -6.970117 c 0.23816,-0.5008 0.491789,-0.97859 0.763262,-1.4242 1.664089,-2.73161 3.86047,-4.32492 6.206855,-4.3956 z m 1.441257,0.14831 c 1.920529,0.46232 3.691065,1.9541 5.088059,4.24729 0.271474,0.44561 0.525103,0.9234 0.763263,1.4242 h -5.851322 z m -6.799069,0.85938 c -0.768747,0.74555 -1.467863,1.63415 -2.079458,2.63808 -0.410194,0.67334 -0.782172,1.40232 -1.11673,2.17403 H 7.9371101 c 1.7118733,-2.14236 3.9797219,-3.8187 6.5877119,-4.81211 z m 11.040671,5.2e-4 c 2.607299,0.99344 4.874336,2.66952 6.585643,4.81159 h -3.389974 c -0.334558,-0.77171 -0.706535,-1.50069 -1.116727,-2.17403 -0.611457,-1.00372 -1.310404,-1.89211 -2.078942,-2.63756 z m -18.6515769,6.25286 h 3.8545449 c -0.740286,2.13923 -1.1957526,4.55596 -1.2970766,7.12874 H 4.5957131 c 0.18201,-2.6081 1.006097,-5.03655 2.318203,-7.12874 z m 5.3872679,0 h 7.58145 v 7.12874 h -8.967927 c 0.109871,-2.60985 0.605718,-5.04052 1.386477,-7.12874 z m 9.022707,0 h 6.462655 c 0.780758,2.08822 1.276606,4.51889 1.386477,7.12874 h -7.849132 z m 7.997444,0 h 3.852995 c 1.326348,2.11531 2.154833,4.57411 2.324404,7.21505 a 0.721675,0.721675 0 0 0 -0.340548,-0.0863 h -4.539773 c -0.101325,-2.57278 -0.556792,-4.98951 -1.297078,-7.12874 z m 6.207374,8.4682 c -0.04366,2.83104 -0.840624,5.47655 -2.205035,7.74268 a 0.72167998,0.72167998 0 0 0 -0.42168,-0.13641 H 29.44846 c 0.734234,-2.25407 1.154985,-4.80097 1.188556,-7.5024 h 4.52117 a 0.721675,0.721675 0 0 0 0.370523,-0.10387 z m -30.9671029,0.10387 h 4.8906593 c 0.03357,2.70143 0.454837,5.24833 1.1890736,7.5024 H 6.6865411 c -1.299313,-2.20798 -2.064721,-4.76653 -2.124935,-7.5024 z m 6.3324289,0 h 8.988599 v 7.5024 h -7.714773 c -0.77419,-2.20441 -1.237406,-4.76444 -1.273826,-7.5024 z m 10.429856,0 h 7.869804 c -0.03642,2.73794 -0.49965,5.29802 -1.273826,7.5024 h -6.595978 z m -13.6792699,8.9457 h 3.5248509 c 0.373133,0.91151 0.800163,1.76366 1.275892,2.54455 0.611611,1.00396 1.31069,1.89304 2.079458,2.63861 -2.758064,-1.05032 -5.1384066,-2.86197 -6.8802009,-5.18316 z m 5.0952979,0 h 7.142715 v 6.19032 c -2.346383,-0.0707 -4.542768,-1.66399 -6.206855,-4.3956 -0.337865,-0.55459 -0.650314,-1.15589 -0.93586,-1.79472 z m 8.583972,0 h 6.02392 c -0.285546,0.63883 -0.597996,1.24013 -0.935861,1.79472 -1.396992,2.2932 -3.167536,3.78497 -5.088059,4.2473 z m 7.596434,0 h 3.5233 c -1.74126,2.32092 -4.120703,4.13279 -6.878132,5.18316 0.768659,-0.74552 1.4674,-1.63476 2.078942,-2.63861 0.475726,-0.78089 0.902756,-1.63304 1.27589,-2.54455 z"
         style="color:#000000;font-style:normal;font-variant:normal;font-weight:normal;font-stretch:normal;font-size:medium;line-height:normal;font-family:sans-serif;font-variant-ligatures:normal;font-variant-position:normal;font-variant-caps:normal;font-variant-numeric:normal;font-variant-alternates:normal;font-feature-settings:normal;text-indent:0;text-align:start;text-decoration:none;text-decoration-line:none;text-decoration-style:solid;text-decoration-color:#000000;letter-spacing:normal;word-spacing:normal;text-transform:none;writing-mode:lr-tb;direction:ltr;text-orientation:mixed;dominant-baseline:auto;baseline-shift:baseline;text-anchor:start;white-space:normal;shape-padding:0;clip-rule:nonzero;display:inline;overflow:visible;visibility:visible;opacity:1;isolation:auto;mix-blend-mode:normal;color-interpolation:sRGB;color-interpolation-filters:linearRGB;solid-color:#000000;solid-opacity:1;vector-effect:none;fill:#767676;fill-opacity:1;fill-rule:evenodd;stroke:none;stroke-width:1.44224405;stroke-linecap:round;stroke-linejoin:miter;stroke-miterlimit:4;stroke-dasharray:none;stroke-dashoffset:0;stroke-opacity:1;color-rendering:auto;image-rendering:auto;shape-rendering:auto;text-rendering:auto;enable-background:accumulate"
         transform="matrix(0.90447251,0,0,0.90452746,41.325829,27.896999)" />
      <g
         id="g6293"
         transform="matrix(0.90447251,0,0,0.90452746,41.325829,27.896999)">
        <circle
           style="opacity:1;fill:none;fill-opacity:1;fill-rule:evenodd;stroke:#f7f7f7;stroke-width:1.44224405;stroke-linecap:round;stroke-miterlimit:4;stroke-dasharray:none;stroke-opacity:1"
           id="circle6281"
           cx="19.484673"
           cy="278.57407"
           r="16.212212" />
        <ellipse
           cy="278.57407"
           cx="19.484673"
           id="ellipse6283"
           style="opacity:1;fill:none;fill-opacity:1;fill-rule:evenodd;stroke:#f7f7f7;stroke-width:1.44224405;stroke-linecap:round;stroke-miterlimit:4;stroke-dasharray:none;stroke-opacity:1"
           rx="9.8764048"
           ry="16.212212" />
        <path
           style="opacity:1;fill:none;fill-opacity:1;fill-rule:evenodd;stroke:#f7f7f7;stroke-width:1.44224405;stroke-linecap:round;stroke-miterlimit:4;stroke-dasharray:none;stroke-opacity:1"
           d="M 3.440246,278.20133 H 34.59736"
           id="path6285"
           inkscape:connector-curvature="0" />
        <path
           style="opacity:1;fill:none;fill-opacity:1;fill-rule:evenodd;stroke:#f7f7f7;stroke-width:1.44224405;stroke-linecap:round;stroke-miterlimit:4;stroke-dasharray:none;stroke-opacity:1"
           d="m 20.043714,262.54816 v 32.05172"
           id="path6287"
           inkscape:connector-curvature="0" />
        <path
           style="opacity:1;fill:none;fill-opacity:1;fill-rule:evenodd;stroke:#f7f7f7;stroke-width:1.44224405;stroke-linecap:round;stroke-miterlimit:4;stroke-dasharray:none;stroke-opacity:1"
           d="M 6.0676689,269.62936 H 32.715329"
           id="path6289"
           inkscape:connector-curvature="0" />
        <path
           inkscape:connector-curvature="0"
           id="path6291"
           d="M 5.6949744,287.146 H 32.342634"
           style="opacity:1;fill:none;fill-opacity:1;fill-rule:evenodd;stroke:#f7f7f7;stroke-width:1.44224405;stroke-linecap:round;stroke-miterlimit:4;stroke-dasharray:none;stroke-opacity:1" />
      </g>
    </g>
    <g
       id="g6325"
       transform="matrix(0.22611878,0,0,0.22613252,1.3073113,169.38409)"
       inkscape:export-filename="C:\Projects\CSharp\Hyperwave\Hyperwave.Browser\IconTemp\GlobeHigh_32.png"
       inkscape:export-xdpi="96"
       inkscape:export-ydpi="96">
      <g
         id="g6301">
        <path
           inkscape:connector-curvature="0"
           id="path6297"
           d="m 28.989488,266.89825 c -1.975944,0.22733 -4.005531,0.81024 -4.748944,2.19321 -1.616758,3.00759 4.514258,6.70012 3.726923,10.24907 -0.6659,3.00159 -6.072726,3.19295 -6.522155,6.52216 -0.288044,2.13375 0.991634,6.42002 3.583624,9.47572 A 16.212211,16.212211 0 0 0 35.794053,280.086 16.212211,16.212211 0 0 0 28.989488,266.89825 Z"
           style="opacity:1;fill:#505050;fill-opacity:1;fill-rule:evenodd;stroke:none;stroke-width:1.44224405;stroke-linecap:round;stroke-miterlimit:4;stroke-dasharray:none;stroke-opacity:1;filter:url(#filter5845)" />
        <path
           inkscape:connector-curvature="0"
           id="path6299"
           d="M 15.404444,264.47284 A 16.212211,16.212211 0 0 0 4.115,279.89965 16.212211,16.212211 0 0 0 10.463019,292.7404 c 0.07078,-0.0963 4.508525,-6.15325 3.528336,-9.30019 -0.650735,-2.08921 -5.043628,-1.56861 -5.404094,-3.72693 -0.826801,-4.95052 9.461838,-7.12021 8.944782,-12.1126 -0.112488,-1.08615 -1.013255,-2.17451 -2.127599,-3.12784 z"
           style="opacity:1;fill:#505050;fill-opacity:1;fill-rule:evenodd;stroke:none;stroke-width:1.44224405;stroke-linecap:round;stroke-miterlimit:4;stroke-dasharray:none;stroke-opacity:1;filter:url(#filter5841)" />
      </g>
      <g
         id="g6307">
        <path
           style="opacity:1;fill:#adadad;fill-opacity:1;fill-rule:evenodd;stroke:none;stroke-width:1.44224405;stroke-linecap:round;stroke-miterlimit:4;stroke-dasharray:none;stroke-opacity:1"
           d="m 28.706006,265.38634 c -1.975944,0.22733 -4.005531,0.81024 -4.748944,2.19321 -1.616758,3.00759 4.514258,6.70012 3.726923,10.24907 -0.6659,3.00159 -6.072726,3.19295 -6.522155,6.52216 -0.288044,2.13375 0.991634,6.42002 3.583624,9.47572 a 16.212211,16.212211 0 0 0 10.765117,-15.25241 16.212211,16.212211 0 0 0 -6.804565,-13.18775 z"
           id="path6303"
           inkscape:connector-curvature="0" />
        <path
           style="opacity:1;fill:#adadad;fill-opacity:1;fill-rule:evenodd;stroke:none;stroke-width:1.44224405;stroke-linecap:round;stroke-miterlimit:4;stroke-dasharray:none;stroke-opacity:1"
           d="m 15.120962,262.96093 a 16.212211,16.212211 0 0 0 -11.2894443,15.42681 16.212211,16.212211 0 0 0 6.3480193,12.84075 c 0.07078,-0.0963 4.508525,-6.15325 3.528336,-9.30019 -0.650735,-2.08921 -5.0436281,-1.56861 -5.4040944,-3.72693 -0.8268004,-4.95052 9.4618384,-7.12021 8.9447824,-12.1126 -0.112488,-1.08615 -1.013255,-2.17451 -2.127599,-3.12784 z"
           id="path6305"
           inkscape:connector-curvature="0" />
      </g>
      <path
         inkscape:connector-curvature="0"
         id="path6309"
         d="m 20.044898,262.48393 c -9.34348,0 -16.9338489,7.59038 -16.9338489,16.93385 0,3.20926 0.895599,6.21128 2.449978,8.77001 a 0.72167998,0.72167998 0 0 0 0.223242,0.34777 c 3.0117743,4.69574 8.2742669,7.81349 14.2606289,7.81349 9.34348,0 16.933333,-7.5878 16.933333,-16.93127 0,-9.34347 -7.589853,-16.93385 -16.933333,-16.93385 z m -0.162264,1.44797 v 5.8198 h -6.970117 c 0.23816,-0.5008 0.491789,-0.97859 0.763262,-1.4242 1.664089,-2.73161 3.86047,-4.32492 6.206855,-4.3956 z m 1.441257,0.14831 c 1.920529,0.46232 3.691065,1.9541 5.088059,4.24729 0.271474,0.44561 0.525103,0.9234 0.763263,1.4242 h -5.851322 z m -6.799069,0.85938 c -0.768747,0.74555 -1.467863,1.63415 -2.079458,2.63808 -0.410194,0.67334 -0.782172,1.40232 -1.11673,2.17403 H 7.9371101 c 1.7118733,-2.14236 3.9797219,-3.8187 6.5877119,-4.81211 z m 11.040671,5.2e-4 c 2.607299,0.99344 4.874336,2.66952 6.585643,4.81159 h -3.389974 c -0.334558,-0.77171 -0.706535,-1.50069 -1.116727,-2.17403 -0.611457,-1.00372 -1.310404,-1.89211 -2.078942,-2.63756 z m -18.6515769,6.25286 h 3.8545449 c -0.740286,2.13923 -1.1957526,4.55596 -1.2970766,7.12874 H 4.5957131 c 0.18201,-2.6081 1.006097,-5.03655 2.318203,-7.12874 z m 5.3872679,0 h 7.58145 v 7.12874 h -8.967927 c 0.109871,-2.60985 0.605718,-5.04052 1.386477,-7.12874 z m 9.022707,0 h 6.462655 c 0.780758,2.08822 1.276606,4.51889 1.386477,7.12874 h -7.849132 z m 7.997444,0 h 3.852995 c 1.326348,2.11531 2.154833,4.57411 2.324404,7.21505 a 0.721675,0.721675 0 0 0 -0.340548,-0.0863 h -4.539773 c -0.101325,-2.57278 -0.556792,-4.98951 -1.297078,-7.12874 z m 6.207374,8.4682 c -0.04366,2.83104 -0.840624,5.47655 -2.205035,7.74268 a 0.72167998,0.72167998 0 0 0 -0.42168,-0.13641 H 29.44846 c 0.734234,-2.25407 1.154985,-4.80097 1.188556,-7.5024 h 4.52117 a 0.721675,0.721675 0 0 0 0.370523,-0.10387 z m -30.9671029,0.10387 h 4.8906593 c 0.03357,2.70143 0.454837,5.24833 1.1890736,7.5024 H 6.6865411 c -1.299313,-2.20798 -2.064721,-4.76653 -2.124935,-7.5024 z m 6.3324289,0 h 8.988599 v 7.5024 h -7.714773 c -0.77419,-2.20441 -1.237406,-4.76444 -1.273826,-7.5024 z m 10.429856,0 h 7.869804 c -0.03642,2.73794 -0.49965,5.29802 -1.273826,7.5024 h -6.595978 z m -13.6792699,8.9457 h 3.5248509 c 0.373133,0.91151 0.800163,1.76366 1.275892,2.54455 0.611611,1.00396 1.31069,1.89304 2.079458,2.63861 -2.758064,-1.05032 -5.1384066,-2.86197 -6.8802009,-5.18316 z m 5.0952979,0 h 7.142715 v 6.19032 c -2.346383,-0.0707 -4.542768,-1.66399 -6.206855,-4.3956 -0.337865,-0.55459 -0.650314,-1.15589 -0.93586,-1.79472 z m 8.583972,0 h 6.02392 c -0.285546,0.63883 -0.597996,1.24013 -0.935861,1.79472 -1.396992,2.2932 -3.167536,3.78497 -5.088059,4.2473 z m 7.596434,0 h 3.5233 c -1.74126,2.32092 -4.120703,4.13279 -6.878132,5.18316 0.768659,-0.74552 1.4674,-1.63476 2.078942,-2.63861 0.475726,-0.78089 0.902756,-1.63304 1.27589,-2.54455 z"
         style="color:#000000;font-style:normal;font-variant:normal;font-weight:normal;font-stretch:normal;font-size:medium;line-height:normal;font-family:sans-serif;font-variant-ligatures:normal;font-variant-position:normal;font-variant-caps:normal;font-variant-numeric:normal;font-variant-alternates:normal;font-feature-settings:normal;text-indent:0;text-align:start;text-decoration:none;text-decoration-line:none;text-decoration-style:solid;text-decoration-color:#000000;letter-spacing:normal;word-spacing:normal;text-transform:none;writing-mode:lr-tb;direction:ltr;text-orientation:mixed;dominant-baseline:auto;baseline-shift:baseline;text-anchor:start;white-space:normal;shape-padding:0;clip-rule:nonzero;display:inline;overflow:visible;visibility:visible;opacity:1;isolation:auto;mix-blend-mode:normal;color-interpolation:sRGB;color-interpolation-filters:linearRGB;solid-color:#000000;solid-opacity:1;vector-effect:none;fill:#505050;fill-opacity:1;fill-rule:evenodd;stroke:none;stroke-width:1.44224405;stroke-linecap:round;stroke-linejoin:miter;stroke-miterlimit:4;stroke-dasharray:none;stroke-dashoffset:0;stroke-opacity:1;filter:url(#filter5329);color-rendering:auto;image-rendering:auto;shape-rendering:auto;text-rendering:auto;enable-background:accumulate" />
      <g
         id="g6323">
        <circle
           style="opacity:1;fill:none;fill-opacity:1;fill-rule:evenodd;stroke:#f7f7f7;stroke-width:1.44224405;stroke-linecap:round;stroke-miterlimit:4;stroke-dasharray:none;stroke-opacity:1"
           id="circle6311"
           cx="19.484673"
           cy="278.57407"
           r="16.212212" />
        <ellipse
           cy="278.57407"
           cx="19.484673"
           id="ellipse6313"
           style="opacity:1;fill:none;fill-opacity:1;fill-rule:evenodd;stroke:#f7f7f7;stroke-width:1.44224405;stroke-linecap:round;stroke-miterlimit:4;stroke-dasharray:none;stroke-opacity:1"
           rx="9.8764048"
           ry="16.212212" />
        <path
           style="opacity:1;fill:none;fill-opacity:1;fill-rule:evenodd;stroke:#f7f7f7;stroke-width:1.44224405;stroke-linecap:round;stroke-miterlimit:4;stroke-dasharray:none;stroke-opacity:1"
           d="M 3.440246,278.20133 H 34.59736"
           id="path6315"
           inkscape:connector-curvature="0" />
        <path
           style="opacity:1;fill:none;fill-opacity:1;fill-rule:evenodd;stroke:#f7f7f7;stroke-width:1.44224405;stroke-linecap:round;stroke-miterlimit:4;stroke-dasharray:none;stroke-opacity:1"
           d="m 20.043714,262.54816 v 32.05172"
           id="path6317"
           inkscape:connector-curvature="0" />
        <path
           style="opacity:1;fill:none;fill-opacity:1;fill-rule:evenodd;stroke:#f7f7f7;stroke-width:1.44224405;stroke-linecap:round;stroke-miterlimit:4;stroke-dasharray:none;stroke-opacity:1"
           d="M 6.0676689,269.62936 H 32.715329"
           id="path6319"
           inkscape:connector-curvature="0" />
        <path
           inkscape:connector-curvature="0"
           id="path6321"
           d="M 5.6949744,287.146 H 32.342634"
           style="opacity:1;fill:none;fill-opacity:1;fill-rule:evenodd;stroke:#f7f7f7;stroke-width:1.44224405;stroke-linecap:round;stroke-miterlimit:4;stroke-dasharray:none;stroke-opacity:1" />
      </g>
    </g>
    <g
       id="g6355"
       transform="matrix(0.2719063,0,0,0.26968601,32.050442,156.98521)"
       inkscape:export-filename="C:\Projects\CSharp\Hyperwave\Hyperwave.Browser\IconTemp\GlobeLow_32.png"
       inkscape:export-xdpi="96"
       inkscape:export-ydpi="96">
      <g
         id="g6331">
        <path
           style="opacity:1;fill:#7d7d7d;fill-opacity:1;fill-rule:evenodd;stroke:none;stroke-width:1.30450976;stroke-linecap:round;stroke-miterlimit:4;stroke-dasharray:none;stroke-opacity:1"
           d="m 66.430993,267.5562 c -1.787187,0.20563 -3.622892,0.73289 -4.295289,1.98382 -1.462313,2.72045 4.083022,6.06044 3.370899,9.27057 -0.602288,2.71502 -5.492613,2.88811 -5.89911,5.89947 -0.260527,1.93003 0.896906,5.80708 3.24129,8.57105 a 14.663499,14.66439 0 0 0 9.736752,-13.79623 14.663499,14.66439 0 0 0 -6.154542,-11.92868 z"
           id="path6327"
           inkscape:connector-curvature="0" />
        <path
           style="opacity:1;fill:#7d7d7d;fill-opacity:1;fill-rule:evenodd;stroke:none;stroke-width:1.30450976;stroke-linecap:round;stroke-miterlimit:4;stroke-dasharray:none;stroke-opacity:1"
           d="m 55.731195,265.89152 a 14.663499,14.66439 0 0 0 -10.210991,13.95398 14.663499,14.66439 0 0 0 5.741608,11.61481 c 0.06402,-0.0871 4.077837,-5.56579 3.191283,-8.41228 -0.588572,-1.88975 -4.561823,-1.41885 -4.887854,-3.37111 -0.747819,-4.47788 8.557972,-6.44043 8.090309,-10.95618 -0.101742,-0.98245 -0.916461,-1.9669 -1.924355,-2.82922 z"
           id="path6329"
           inkscape:connector-curvature="0" />
      </g>
      <g
         transform="matrix(0.90447251,0,0,0.90452746,41.325829,27.896999)"
         id="g6337">
        <path
           inkscape:connector-curvature="0"
           id="path6333"
           d="m 28.706006,265.38634 c -1.975944,0.22733 -4.005531,0.81024 -4.748944,2.19321 -1.616758,3.00759 4.514258,6.70012 3.726923,10.24907 -0.6659,3.00159 -6.072726,3.19295 -6.522155,6.52216 -0.288044,2.13375 0.991634,6.42002 3.583624,9.47572 a 16.212211,16.212211 0 0 0 10.765117,-15.25241 16.212211,16.212211 0 0 0 -6.804565,-13.18775 z"
           style="opacity:1;fill:#adadad;fill-opacity:1;fill-rule:evenodd;stroke:none;stroke-width:1.44224405;stroke-linecap:round;stroke-miterlimit:4;stroke-dasharray:none;stroke-opacity:1" />
        <path
           inkscape:connector-curvature="0"
           id="path6335"
           d="m 15.120962,262.96093 a 16.212211,16.212211 0 0 0 -11.2894443,15.42681 16.212211,16.212211 0 0 0 6.3480193,12.84075 c 0.07078,-0.0963 4.508525,-6.15325 3.528336,-9.30019 -0.650735,-2.08921 -5.0436281,-1.56861 -5.4040944,-3.72693 -0.8268004,-4.95052 9.4618384,-7.12021 8.9447824,-12.1126 -0.112488,-1.08615 -1.013255,-2.17451 -2.127599,-3.12784 z"
           style="opacity:1;fill:#adadad;fill-opacity:1;fill-rule:evenodd;stroke:none;stroke-width:1.44224405;stroke-linecap:round;stroke-miterlimit:4;stroke-dasharray:none;stroke-opacity:1" />
      </g>
      <path
         transform="matrix(0.90447251,0,0,0.90452746,41.325829,27.896999)"
         style="color:#000000;font-style:normal;font-variant:normal;font-weight:normal;font-stretch:normal;font-size:medium;line-height:normal;font-family:sans-serif;font-variant-ligatures:normal;font-variant-position:normal;font-variant-caps:normal;font-variant-numeric:normal;font-variant-alternates:normal;font-feature-settings:normal;text-indent:0;text-align:start;text-decoration:none;text-decoration-line:none;text-decoration-style:solid;text-decoration-color:#000000;letter-spacing:normal;word-spacing:normal;text-transform:none;writing-mode:lr-tb;direction:ltr;text-orientation:mixed;dominant-baseline:auto;baseline-shift:baseline;text-anchor:start;white-space:normal;shape-padding:0;clip-rule:nonzero;display:inline;overflow:visible;visibility:visible;opacity:1;isolation:auto;mix-blend-mode:normal;color-interpolation:sRGB;color-interpolation-filters:linearRGB;solid-color:#000000;solid-opacity:1;vector-effect:none;fill:#767676;fill-opacity:1;fill-rule:evenodd;stroke:none;stroke-width:1.44224405;stroke-linecap:round;stroke-linejoin:miter;stroke-miterlimit:4;stroke-dasharray:none;stroke-dashoffset:0;stroke-opacity:1;color-rendering:auto;image-rendering:auto;shape-rendering:auto;text-rendering:auto;enable-background:accumulate"
         d="m 20.044898,262.48393 c -9.34348,0 -16.9338489,7.59038 -16.9338489,16.93385 0,3.20926 0.895599,6.21128 2.449978,8.77001 a 0.72167998,0.72167998 0 0 0 0.223242,0.34777 c 3.0117743,4.69574 8.2742669,7.81349 14.2606289,7.81349 9.34348,0 16.933333,-7.5878 16.933333,-16.93127 0,-9.34347 -7.589853,-16.93385 -16.933333,-16.93385 z m -0.162264,1.44797 v 5.8198 h -6.970117 c 0.23816,-0.5008 0.491789,-0.97859 0.763262,-1.4242 1.664089,-2.73161 3.86047,-4.32492 6.206855,-4.3956 z m 1.441257,0.14831 c 1.920529,0.46232 3.691065,1.9541 5.088059,4.24729 0.271474,0.44561 0.525103,0.9234 0.763263,1.4242 h -5.851322 z m -6.799069,0.85938 c -0.768747,0.74555 -1.467863,1.63415 -2.079458,2.63808 -0.410194,0.67334 -0.782172,1.40232 -1.11673,2.17403 H 7.9371101 c 1.7118733,-2.14236 3.9797219,-3.8187 6.5877119,-4.81211 z m 11.040671,5.2e-4 c 2.607299,0.99344 4.874336,2.66952 6.585643,4.81159 h -3.389974 c -0.334558,-0.77171 -0.706535,-1.50069 -1.116727,-2.17403 -0.611457,-1.00372 -1.310404,-1.89211 -2.078942,-2.63756 z m -18.6515769,6.25286 h 3.8545449 c -0.740286,2.13923 -1.1957526,4.55596 -1.2970766,7.12874 H 4.5957131 c 0.18201,-2.6081 1.006097,-5.03655 2.318203,-7.12874 z m 5.3872679,0 h 7.58145 v 7.12874 h -8.967927 c 0.109871,-2.60985 0.605718,-5.04052 1.386477,-7.12874 z m 9.022707,0 h 6.462655 c 0.780758,2.08822 1.276606,4.51889 1.386477,7.12874 h -7.849132 z m 7.997444,0 h 3.852995 c 1.326348,2.11531 2.154833,4.57411 2.324404,7.21505 a 0.721675,0.721675 0 0 0 -0.340548,-0.0863 h -4.539773 c -0.101325,-2.57278 -0.556792,-4.98951 -1.297078,-7.12874 z m 6.207374,8.4682 c -0.04366,2.83104 -0.840624,5.47655 -2.205035,7.74268 a 0.72167998,0.72167998 0 0 0 -0.42168,-0.13641 H 29.44846 c 0.734234,-2.25407 1.154985,-4.80097 1.188556,-7.5024 h 4.52117 a 0.721675,0.721675 0 0 0 0.370523,-0.10387 z m -30.9671029,0.10387 h 4.8906593 c 0.03357,2.70143 0.454837,5.24833 1.1890736,7.5024 H 6.6865411 c -1.299313,-2.20798 -2.064721,-4.76653 -2.124935,-7.5024 z m 6.3324289,0 h 8.988599 v 7.5024 h -7.714773 c -0.77419,-2.20441 -1.237406,-4.76444 -1.273826,-7.5024 z m 10.429856,0 h 7.869804 c -0.03642,2.73794 -0.49965,5.29802 -1.273826,7.5024 h -6.595978 z m -13.6792699,8.9457 h 3.5248509 c 0.373133,0.91151 0.800163,1.76366 1.275892,2.54455 0.611611,1.00396 1.31069,1.89304 2.079458,2.63861 -2.758064,-1.05032 -5.1384066,-2.86197 -6.8802009,-5.18316 z m 5.0952979,0 h 7.142715 v 6.19032 c -2.346383,-0.0707 -4.542768,-1.66399 -6.206855,-4.3956 -0.337865,-0.55459 -0.650314,-1.15589 -0.93586,-1.79472 z m 8.583972,0 h 6.02392 c -0.285546,0.63883 -0.597996,1.24013 -0.935861,1.79472 -1.396992,2.2932 -3.167536,3.78497 -5.088059,4.2473 z m 7.596434,0 h 3.5233 c -1.74126,2.32092 -4.120703,4.13279 -6.878132,5.18316 0.768659,-0.74552 1.4674,-1.63476 2.078942,-2.63861 0.475726,-0.78089 0.902756,-1.63304 1.27589,-2.54455 z"
         id="path6339"
         inkscape:connector-curvature="0" />
      <g
         transform="matrix(0.90447251,0,0,0.90452746,41.325829,27.896999)"
         id="g6353">
        <circle
           r="16.212212"
           cy="278.57407"
           cx="19.484673"
           id="circle6341"
           style="opacity:1;fill:none;fill-opacity:1;fill-rule:evenodd;stroke:#f7f7f7;stroke-width:1.44224405;stroke-linecap:round;stroke-miterlimit:4;stroke-dasharray:none;stroke-opacity:1" />
        <ellipse
           ry="16.212212"
           rx="9.8764048"
           style="opacity:1;fill:none;fill-opacity:1;fill-rule:evenodd;stroke:#f7f7f7;stroke-width:1.44224405;stroke-linecap:round;stroke-miterlimit:4;stroke-dasharray:none;stroke-opacity:1"
           id="ellipse6343"
           cx="19.484673"
           cy="278.57407" />
        <path
           inkscape:connector-curvature="0"
           id="path6345"
           d="M 3.440246,278.20133 H 34.59736"
           style="opacity:1;fill:none;fill-opacity:1;fill-rule:evenodd;stroke:#f7f7f7;stroke-width:1.44224405;stroke-linecap:round;stroke-miterlimit:4;stroke-dasharray:none;stroke-opacity:1" />
        <path
           inkscape:connector-curvature="0"
           id="path6347"
           d="m 20.043714,262.54816 v 32.05172"
           style="opacity:1;fill:none;fill-opacity:1;fill-rule:evenodd;stroke:#f7f7f7;stroke-width:1.44224405;stroke-linecap:round;stroke-miterlimit:4;stroke-dasharray:none;stroke-opacity:1" />
        <path
           inkscape:connector-curvature="0"
           id="path6349"
           d="M 6.0676689,269.62936 H 32.715329"
           style="opacity:1;fill:none;fill-opacity:1;fill-rule:evenodd;stroke:#f7f7f7;stroke-width:1.44224405;stroke-linecap:round;stroke-miterlimit:4;stroke-dasharray:none;stroke-opacity:1" />
        <path
           style="opacity:1;fill:none;fill-opacity:1;fill-rule:evenodd;stroke:#f7f7f7;stroke-width:1.44224405;stroke-linecap:round;stroke-miterlimit:4;stroke-dasharray:none;stroke-opacity:1"
           d="M 5.6949744,287.146 H 32.342634"
           id="path6351"
           inkscape:connector-curvature="0" />
      </g>
    </g>
    <g
       transform="matrix(0.11305939,0,0,0.11306626,1.4568794,188.35227)"
       id="g6385"
       inkscape:export-filename="C:\Projects\CSharp\Hyperwave\Hyperwave.Browser\IconTemp\GlobeHigh_16.png"
       inkscape:export-xdpi="96"
       inkscape:export-ydpi="96">
      <g
         id="g6361" />
      <g
         id="g6367" />
      <path
         style="color:#000000;font-style:normal;font-variant:normal;font-weight:normal;font-stretch:normal;font-size:medium;line-height:normal;font-family:sans-serif;font-variant-ligatures:normal;font-variant-position:normal;font-variant-caps:normal;font-variant-numeric:normal;font-variant-alternates:normal;font-feature-settings:normal;text-indent:0;text-align:start;text-decoration:none;text-decoration-line:none;text-decoration-style:solid;text-decoration-color:#000000;letter-spacing:normal;word-spacing:normal;text-transform:none;writing-mode:lr-tb;direction:ltr;text-orientation:mixed;dominant-baseline:auto;baseline-shift:baseline;text-anchor:start;white-space:normal;shape-padding:0;clip-rule:nonzero;display:inline;overflow:visible;visibility:visible;opacity:1;isolation:auto;mix-blend-mode:normal;color-interpolation:sRGB;color-interpolation-filters:linearRGB;solid-color:#000000;solid-opacity:1;vector-effect:none;fill:#505050;fill-opacity:1;fill-rule:evenodd;stroke:none;stroke-width:1.44224405;stroke-linecap:round;stroke-linejoin:miter;stroke-miterlimit:4;stroke-dasharray:none;stroke-dashoffset:0;stroke-opacity:1;filter:url(#filter5329);color-rendering:auto;image-rendering:auto;shape-rendering:auto;text-rendering:auto;enable-background:accumulate"
         d="m 20.044898,262.48393 c -9.34348,0 -16.9338489,7.59038 -16.9338489,16.93385 0,3.20926 0.895599,6.21128 2.449978,8.77001 a 0.72167998,0.72167998 0 0 0 0.223242,0.34777 c 3.0117743,4.69574 8.2742669,7.81349 14.2606289,7.81349 9.34348,0 16.933333,-7.5878 16.933333,-16.93127 0,-9.34347 -7.589853,-16.93385 -16.933333,-16.93385 z m -0.162264,1.44797 v 5.8198 h -6.970117 c 0.23816,-0.5008 0.491789,-0.97859 0.763262,-1.4242 1.664089,-2.73161 3.86047,-4.32492 6.206855,-4.3956 z m 1.441257,0.14831 c 1.920529,0.46232 3.691065,1.9541 5.088059,4.24729 0.271474,0.44561 0.525103,0.9234 0.763263,1.4242 h -5.851322 z m -6.799069,0.85938 c -0.768747,0.74555 -1.467863,1.63415 -2.079458,2.63808 -0.410194,0.67334 -0.782172,1.40232 -1.11673,2.17403 H 7.9371101 c 1.7118733,-2.14236 3.9797219,-3.8187 6.5877119,-4.81211 z m 11.040671,5.2e-4 c 2.607299,0.99344 4.874336,2.66952 6.585643,4.81159 h -3.389974 c -0.334558,-0.77171 -0.706535,-1.50069 -1.116727,-2.17403 -0.611457,-1.00372 -1.310404,-1.89211 -2.078942,-2.63756 z m -18.6515769,6.25286 h 3.8545449 c -0.740286,2.13923 -1.1957526,4.55596 -1.2970766,7.12874 H 4.5957131 c 0.18201,-2.6081 1.006097,-5.03655 2.318203,-7.12874 z m 5.3872679,0 h 7.58145 v 7.12874 h -8.967927 c 0.109871,-2.60985 0.605718,-5.04052 1.386477,-7.12874 z m 9.022707,0 h 6.462655 c 0.780758,2.08822 1.276606,4.51889 1.386477,7.12874 h -7.849132 z m 7.997444,0 h 3.852995 c 1.326348,2.11531 2.154833,4.57411 2.324404,7.21505 a 0.721675,0.721675 0 0 0 -0.340548,-0.0863 h -4.539773 c -0.101325,-2.57278 -0.556792,-4.98951 -1.297078,-7.12874 z m 6.207374,8.4682 c -0.04366,2.83104 -0.840624,5.47655 -2.205035,7.74268 a 0.72167998,0.72167998 0 0 0 -0.42168,-0.13641 H 29.44846 c 0.734234,-2.25407 1.154985,-4.80097 1.188556,-7.5024 h 4.52117 a 0.721675,0.721675 0 0 0 0.370523,-0.10387 z m -30.9671029,0.10387 h 4.8906593 c 0.03357,2.70143 0.454837,5.24833 1.1890736,7.5024 H 6.6865411 c -1.299313,-2.20798 -2.064721,-4.76653 -2.124935,-7.5024 z m 6.3324289,0 h 8.988599 v 7.5024 h -7.714773 c -0.77419,-2.20441 -1.237406,-4.76444 -1.273826,-7.5024 z m 10.429856,0 h 7.869804 c -0.03642,2.73794 -0.49965,5.29802 -1.273826,7.5024 h -6.595978 z m -13.6792699,8.9457 h 3.5248509 c 0.373133,0.91151 0.800163,1.76366 1.275892,2.54455 0.611611,1.00396 1.31069,1.89304 2.079458,2.63861 -2.758064,-1.05032 -5.1384066,-2.86197 -6.8802009,-5.18316 z m 5.0952979,0 h 7.142715 v 6.19032 c -2.346383,-0.0707 -4.542768,-1.66399 -6.206855,-4.3956 -0.337865,-0.55459 -0.650314,-1.15589 -0.93586,-1.79472 z m 8.583972,0 h 6.02392 c -0.285546,0.63883 -0.597996,1.24013 -0.935861,1.79472 -1.396992,2.2932 -3.167536,3.78497 -5.088059,4.2473 z m 7.596434,0 h 3.5233 c -1.74126,2.32092 -4.120703,4.13279 -6.878132,5.18316 0.768659,-0.74552 1.4674,-1.63476 2.078942,-2.63861 0.475726,-0.78089 0.902756,-1.63304 1.27589,-2.54455 z"
         id="path6369"
         inkscape:connector-curvature="0" />
      <g
         id="g6383">
        <circle
           r="16.212212"
           cy="278.57407"
           cx="19.484673"
           id="circle6371"
           style="opacity:1;fill:none;fill-opacity:1;fill-rule:evenodd;stroke:#f7f7f7;stroke-width:1.44224405;stroke-linecap:round;stroke-miterlimit:4;stroke-dasharray:none;stroke-opacity:1" />
        <ellipse
           ry="16.212212"
           rx="9.8764048"
           style="opacity:1;fill:none;fill-opacity:1;fill-rule:evenodd;stroke:#f7f7f7;stroke-width:1.44224405;stroke-linecap:round;stroke-miterlimit:4;stroke-dasharray:none;stroke-opacity:1"
           id="ellipse6373"
           cx="19.484673"
           cy="278.57407" />
        <path
           inkscape:connector-curvature="0"
           id="path6375"
           d="M 3.440246,278.20133 H 34.59736"
           style="opacity:1;fill:none;fill-opacity:1;fill-rule:evenodd;stroke:#f7f7f7;stroke-width:1.44224405;stroke-linecap:round;stroke-miterlimit:4;stroke-dasharray:none;stroke-opacity:1" />
        <path
           inkscape:connector-curvature="0"
           id="path6377"
           d="m 20.043714,262.54816 v 32.05172"
           style="opacity:1;fill:none;fill-opacity:1;fill-rule:evenodd;stroke:#f7f7f7;stroke-width:1.44224405;stroke-linecap:round;stroke-miterlimit:4;stroke-dasharray:none;stroke-opacity:1" />
        <path
           inkscape:connector-curvature="0"
           id="path6379"
           d="M 6.0676689,269.62936 H 32.715329"
           style="opacity:1;fill:none;fill-opacity:1;fill-rule:evenodd;stroke:#f7f7f7;stroke-width:1.44224405;stroke-linecap:round;stroke-miterlimit:4;stroke-dasharray:none;stroke-opacity:1" />
        <path
           style="opacity:1;fill:none;fill-opacity:1;fill-rule:evenodd;stroke:#f7f7f7;stroke-width:1.44224405;stroke-linecap:round;stroke-miterlimit:4;stroke-dasharray:none;stroke-opacity:1"
           d="M 5.6949744,287.146 H 32.342634"
           id="path6381"
           inkscape:connector-curvature="0" />
      </g>
    </g>
    <g
       transform="matrix(0.13595275,0,0,0.13484261,37.982564,182.15142)"
       id="g6415"
       inkscape:export-filename="C:\Projects\CSharp\Hyperwave\Hyperwave.Browser\IconTemp\GlobeLow_16.png"
       inkscape:export-xdpi="96"
       inkscape:export-ydpi="96">
      <g
         id="g6391" />
      <g
         id="g6397"
         transform="matrix(0.90447251,0,0,0.90452746,41.325829,27.896999)" />
      <path
         inkscape:connector-curvature="0"
         id="path6399"
         d="m 20.044898,262.48393 c -9.34348,0 -16.9338489,7.59038 -16.9338489,16.93385 0,3.20926 0.895599,6.21128 2.449978,8.77001 a 0.72167998,0.72167998 0 0 0 0.223242,0.34777 c 3.0117743,4.69574 8.2742669,7.81349 14.2606289,7.81349 9.34348,0 16.933333,-7.5878 16.933333,-16.93127 0,-9.34347 -7.589853,-16.93385 -16.933333,-16.93385 z m -0.162264,1.44797 v 5.8198 h -6.970117 c 0.23816,-0.5008 0.491789,-0.97859 0.763262,-1.4242 1.664089,-2.73161 3.86047,-4.32492 6.206855,-4.3956 z m 1.441257,0.14831 c 1.920529,0.46232 3.691065,1.9541 5.088059,4.24729 0.271474,0.44561 0.525103,0.9234 0.763263,1.4242 h -5.851322 z m -6.799069,0.85938 c -0.768747,0.74555 -1.467863,1.63415 -2.079458,2.63808 -0.410194,0.67334 -0.782172,1.40232 -1.11673,2.17403 H 7.9371101 c 1.7118733,-2.14236 3.9797219,-3.8187 6.5877119,-4.81211 z m 11.040671,5.2e-4 c 2.607299,0.99344 4.874336,2.66952 6.585643,4.81159 h -3.389974 c -0.334558,-0.77171 -0.706535,-1.50069 -1.116727,-2.17403 -0.611457,-1.00372 -1.310404,-1.89211 -2.078942,-2.63756 z m -18.6515769,6.25286 h 3.8545449 c -0.740286,2.13923 -1.1957526,4.55596 -1.2970766,7.12874 H 4.5957131 c 0.18201,-2.6081 1.006097,-5.03655 2.318203,-7.12874 z m 5.3872679,0 h 7.58145 v 7.12874 h -8.967927 c 0.109871,-2.60985 0.605718,-5.04052 1.386477,-7.12874 z m 9.022707,0 h 6.462655 c 0.780758,2.08822 1.276606,4.51889 1.386477,7.12874 h -7.849132 z m 7.997444,0 h 3.852995 c 1.326348,2.11531 2.154833,4.57411 2.324404,7.21505 a 0.721675,0.721675 0 0 0 -0.340548,-0.0863 h -4.539773 c -0.101325,-2.57278 -0.556792,-4.98951 -1.297078,-7.12874 z m 6.207374,8.4682 c -0.04366,2.83104 -0.840624,5.47655 -2.205035,7.74268 a 0.72167998,0.72167998 0 0 0 -0.42168,-0.13641 H 29.44846 c 0.734234,-2.25407 1.154985,-4.80097 1.188556,-7.5024 h 4.52117 a 0.721675,0.721675 0 0 0 0.370523,-0.10387 z m -30.9671029,0.10387 h 4.8906593 c 0.03357,2.70143 0.454837,5.24833 1.1890736,7.5024 H 6.6865411 c -1.299313,-2.20798 -2.064721,-4.76653 -2.124935,-7.5024 z m 6.3324289,0 h 8.988599 v 7.5024 h -7.714773 c -0.77419,-2.20441 -1.237406,-4.76444 -1.273826,-7.5024 z m 10.429856,0 h 7.869804 c -0.03642,2.73794 -0.49965,5.29802 -1.273826,7.5024 h -6.595978 z m -13.6792699,8.9457 h 3.5248509 c 0.373133,0.91151 0.800163,1.76366 1.275892,2.54455 0.611611,1.00396 1.31069,1.89304 2.079458,2.63861 -2.758064,-1.05032 -5.1384066,-2.86197 -6.8802009,-5.18316 z m 5.0952979,0 h 7.142715 v 6.19032 c -2.346383,-0.0707 -4.542768,-1.66399 -6.206855,-4.3956 -0.337865,-0.55459 -0.650314,-1.15589 -0.93586,-1.79472 z m 8.583972,0 h 6.02392 c -0.285546,0.63883 -0.597996,1.24013 -0.935861,1.79472 -1.396992,2.2932 -3.167536,3.78497 -5.088059,4.2473 z m 7.596434,0 h 3.5233 c -1.74126,2.32092 -4.120703,4.13279 -6.878132,5.18316 0.768659,-0.74552 1.4674,-1.63476 2.078942,-2.63861 0.475726,-0.78089 0.902756,-1.63304 1.27589,-2.54455 z"
         style="color:#000000;font-style:normal;font-variant:normal;font-weight:normal;font-stretch:normal;font-size:medium;line-height:normal;font-family:sans-serif;font-variant-ligatures:normal;font-variant-position:normal;font-variant-caps:normal;font-variant-numeric:normal;font-variant-alternates:normal;font-feature-settings:normal;text-indent:0;text-align:start;text-decoration:none;text-decoration-line:none;text-decoration-style:solid;text-decoration-color:#000000;letter-spacing:normal;word-spacing:normal;text-transform:none;writing-mode:lr-tb;direction:ltr;text-orientation:mixed;dominant-baseline:auto;baseline-shift:baseline;text-anchor:start;white-space:normal;shape-padding:0;clip-rule:nonzero;display:inline;overflow:visible;visibility:visible;opacity:1;isolation:auto;mix-blend-mode:normal;color-interpolation:sRGB;color-interpolation-filters:linearRGB;solid-color:#000000;solid-opacity:1;vector-effect:none;fill:#767676;fill-opacity:1;fill-rule:evenodd;stroke:none;stroke-width:1.44224405;stroke-linecap:round;stroke-linejoin:miter;stroke-miterlimit:4;stroke-dasharray:none;stroke-dashoffset:0;stroke-opacity:1;color-rendering:auto;image-rendering:auto;shape-rendering:auto;text-rendering:auto;enable-background:accumulate"
         transform="matrix(0.90447251,0,0,0.90452746,41.325829,27.896999)" />
      <g
         id="g6413"
         transform="matrix(0.90447251,0,0,0.90452746,41.325829,27.896999)">
        <circle
           style="opacity:1;fill:none;fill-opacity:1;fill-rule:evenodd;stroke:#f7f7f7;stroke-width:1.44224405;stroke-linecap:round;stroke-miterlimit:4;stroke-dasharray:none;stroke-opacity:1"
           id="circle6401"
           cx="19.484673"
           cy="278.57407"
           r="16.212212" />
        <ellipse
           cy="278.57407"
           cx="19.484673"
           id="ellipse6403"
           style="opacity:1;fill:none;fill-opacity:1;fill-rule:evenodd;stroke:#f7f7f7;stroke-width:1.44224405;stroke-linecap:round;stroke-miterlimit:4;stroke-dasharray:none;stroke-opacity:1"
           rx="9.8764048"
           ry="16.212212" />
        <path
           style="opacity:1;fill:none;fill-opacity:1;fill-rule:evenodd;stroke:#f7f7f7;stroke-width:1.44224405;stroke-linecap:round;stroke-miterlimit:4;stroke-dasharray:none;stroke-opacity:1"
           d="M 3.440246,278.20133 H 34.59736"
           id="path6405"
           inkscape:connector-curvature="0" />
        <path
           style="opacity:1;fill:none;fill-opacity:1;fill-rule:evenodd;stroke:#f7f7f7;stroke-width:1.44224405;stroke-linecap:round;stroke-miterlimit:4;stroke-dasharray:none;stroke-opacity:1"
           d="m 20.043714,262.54816 v 32.05172"
           id="path6407"
           inkscape:connector-curvature="0" />
        <path
           style="opacity:1;fill:none;fill-opacity:1;fill-rule:evenodd;stroke:#f7f7f7;stroke-width:1.44224405;stroke-linecap:round;stroke-miterlimit:4;stroke-dasharray:none;stroke-opacity:1"
           d="M 6.0676689,269.62936 H 32.715329"
           id="path6409"
           inkscape:connector-curvature="0" />
        <path
           inkscape:connector-curvature="0"
           id="path6411"
           d="M 5.6949744,287.146 H 32.342634"
           style="opacity:1;fill:none;fill-opacity:1;fill-rule:evenodd;stroke:#f7f7f7;stroke-width:1.44224405;stroke-linecap:round;stroke-miterlimit:4;stroke-dasharray:none;stroke-opacity:1" />
      </g>
    </g>
  </g>
</svg>
